<svg width="951" height="303" viewBox="0 0 951 303" fill="none" xmlns="http://www.w3.org/2000/svg">
<g clip-path="url(#clip0_384_18640)">
<path d="M0 132.593L50.914 1.12915H78.3444L129.258 132.593H101.079L90.3686 104.798H38.8898L28.1789 132.593H0ZM49.6006 77.5679H79.6577L64.6258 38.5016L49.5938 77.5679H49.6006Z" fill="#EACF34"/>
<path d="M185.616 49.3923V1.12915H213.047V132.593H185.616V121.886C181.669 129.396 172.088 134.47 160.438 134.47C136.016 134.47 116.288 112.498 116.288 85.6424C116.288 58.7864 136.016 36.8146 160.438 36.8146C172.088 36.8146 181.669 41.6988 185.616 49.3991V49.3923ZM185.616 85.6424C185.616 70.4322 176.226 62.5414 165.324 62.5414C152.17 62.5414 143.719 72.6838 143.719 85.6424C143.719 97.6622 152.17 107.05 165.324 107.05C176.219 107.05 185.616 99.7234 185.616 85.6424Z" fill="#EACF34"/>
<path d="M215.864 119.825V38.6921H243.294V127.899C243.294 160.952 231.08 170.156 193.694 170.156V145.368C211.917 144.238 215.864 137.103 215.864 119.825ZM229.582 0C237.85 0.190468 245.179 7.3262 245.363 15.5911C245.172 24.0397 237.85 31.1823 229.582 31.3659C221.315 31.1755 214.176 24.0397 213.986 15.5911C214.176 7.3262 221.315 0.190468 229.582 0Z" fill="#EACF34"/>
<path d="M241.79 96.5331V38.6921H269.411V87.7103C269.411 100.859 273.358 109.308 286.131 109.308C299.843 109.308 303.041 99.1656 303.041 89.0232V38.6921H330.471V132.599H303.041V119.831C302.292 122.083 294.773 134.667 276.74 134.484C259.646 134.484 241.797 123.403 241.797 96.5467L241.79 96.5331Z" fill="#EACF34"/>
<path d="M362.781 36.8079C390.402 36.8079 402.235 52.2085 402.235 68.7384H377.057C377.057 63.8543 373.866 61.0381 364.843 61.0381C355.82 61.0381 352.254 63.8543 352.254 67.4255C352.254 72.8743 360.522 74.1871 370.668 75.8741C386.448 78.5067 406.55 82.0711 406.74 104.043C406.55 127.144 384.196 134.47 364.278 134.47C344.36 134.47 324.633 126.579 324.633 103.669H349.62C349.62 110.056 355.819 112.682 364.278 112.498C376.302 112.498 378.371 107.614 378.555 104.608C378.555 99.7234 372.165 98.2201 364.087 96.9072C347.933 94.2747 324.259 92.3972 324.259 67.2351C324.259 45.6374 341.733 36.8079 362.774 36.8079H362.781Z" fill="#EACF34"/>
<path d="M396.594 38.6922H407.87V12.394H435.491V38.6854H459.539V65.9155H435.491V93.5197C435.491 100.655 440.002 105.349 446.95 105.349H459.539V132.579H432.109C417.642 132.579 407.87 120.933 407.87 103.281V65.9086H396.594V38.6786V38.6922Z" fill="#EACF34"/>
<path d="M453.517 15.7748C453.707 7.50987 461.029 0.183665 469.297 0C477.749 0.190468 484.894 7.50987 485.078 15.7748C484.887 24.0397 477.749 31.3659 469.297 31.5496C461.029 31.3591 453.701 24.0397 453.517 15.7748ZM482.261 38.6921V132.599H454.83V38.6921H482.261Z" fill="#EACF34"/>
<path d="M509.317 38.6921V51.4603C510.065 49.2087 517.585 36.8079 535.618 36.8079C552.711 36.8079 570.377 47.889 570.377 74.7449V132.593H542.946V83.7649C542.946 70.6159 539 61.9768 526.227 61.9768C512.508 61.9768 509.317 72.1192 509.317 82.2616V132.593H481.886V38.6921H509.317Z" fill="#EACF34"/>
<path d="M607.007 36.8079C619.406 36.8079 628.613 42.0661 631.995 49.576V38.6853H659.425V125.266C659.425 158.694 639.888 170.156 609.825 170.156C594.044 170.156 579.386 166.584 566.804 157.571L574.317 133.722C582.394 140.483 595.922 144.993 610.389 144.993C624.857 144.993 631.995 136.164 631.995 125.647V121.892C627.864 129.219 619.032 134.477 607.007 134.477C583.524 134.477 564.361 112.689 564.361 85.6492C564.361 58.6096 583.524 36.8215 607.007 36.8215V36.8079ZM591.792 85.6424C591.792 99.5397 598.93 110.43 611.893 110.43C623.169 110.43 631.995 101.982 631.995 85.6424C631.995 69.303 623.162 60.8544 611.893 60.8544C598.93 60.8544 591.792 71.7451 591.792 85.6424Z" fill="#EACF34"/>
<path d="M710.523 76.8129L747.909 73.4321L747.718 71.9287C747.344 66.1059 740.015 63.4801 730.434 62.9155C717.661 62.3509 699.996 65.5481 694.171 68.3643L687.781 46.5761C697.737 41.1274 714.647 36.8079 728.549 36.8079C758.422 36.8079 775.516 48.4536 775.516 74.9354V132.593H748.086V120.763C740.192 127.899 730.053 134.47 714.082 134.47C696.798 134.47 683.834 122.076 682.895 107.614C681.766 93.1523 691.912 78.3162 710.509 76.8129H710.523ZM720.479 112.124C735.136 112.124 747.535 100.295 748.099 95.4107V91.6557L721.982 95.227C712.211 96.5399 708.454 99.9207 708.454 104.057C708.454 108.192 712.585 112.131 720.479 112.131V112.124Z" fill="#EACF34"/>
<path d="M799.197 38.6921V51.4603C799.945 49.2087 807.465 36.8079 825.498 36.8079C842.592 36.8079 860.257 47.889 860.257 74.7449V132.593H832.827V83.7649C832.827 70.6159 828.88 61.9768 816.107 61.9768C802.389 61.9768 799.197 72.1192 799.197 82.2616V132.593H771.767V38.6921H799.197Z" fill="#EACF34"/>
<path d="M923.57 49.3923V1.12915H951V132.593H923.57V121.886C919.623 129.396 910.042 134.47 898.392 134.47C873.969 134.47 854.242 112.498 854.242 85.6424C854.242 58.7864 873.969 36.8146 898.392 36.8146C910.042 36.8146 919.623 41.6988 923.57 49.3991V49.3923ZM923.57 85.6424C923.57 70.4322 914.179 62.5414 903.278 62.5414C890.124 62.5414 881.672 72.6838 881.672 85.6424C881.672 97.6622 890.124 107.05 903.278 107.05C914.172 107.05 923.57 99.7234 923.57 85.6424Z" fill="#EACF34"/>
<path d="M27.9952 133.974L56.9295 221.303L85.8638 133.974H113.478L142.412 221.303L171.346 133.974H199.342L155.757 265.437H129.075L99.7661 176.979L70.267 265.437H43.5851L0 133.974H27.9952Z" fill="#EACF34"/>
<path d="M212.489 171.537V187.876C213.053 185.06 220.192 170.598 238.415 170.033C241.607 169.843 246.118 170.033 250.63 170.781L246.683 198.012C242.362 197.447 237.85 197.073 233.91 197.073C220.573 197.073 212.495 201.767 212.495 216.793V265.437H185.065V171.53H212.495L212.489 171.537Z" fill="#EACF34"/>
<path d="M257.013 209.664L294.399 206.283L294.208 204.78C293.834 198.957 286.505 196.331 276.924 195.767C264.151 195.202 246.486 198.399 240.661 201.215L234.271 179.427C244.226 173.979 261.137 169.659 275.039 169.659C304.912 169.659 322.006 181.305 322.006 207.787V265.444H294.576V253.614C286.682 260.75 276.543 267.321 260.572 267.321C243.287 267.321 230.324 254.927 229.385 240.465C228.255 226.003 238.401 211.167 256.999 209.664H257.013ZM266.968 244.969C281.626 244.969 294.024 233.139 294.589 228.255V224.5L268.472 228.071C258.7 229.384 254.944 232.765 254.944 236.901C254.944 241.037 259.075 244.975 266.968 244.975V244.969Z" fill="#EACF34"/>
<path d="M318.257 303V171.537H345.878V182.244C349.634 174.543 359.215 169.659 370.865 169.659C395.288 169.659 415.205 191.447 415.205 218.487C415.205 245.526 395.288 267.315 370.865 267.315C359.215 267.315 349.634 262.247 345.878 254.546V303H318.257ZM387.585 218.487C387.585 206.467 379.133 197.08 365.979 197.08C355.085 197.08 345.878 204.406 345.878 218.487C345.878 233.697 355.085 241.588 365.979 241.588C379.133 241.588 387.585 231.445 387.585 218.487Z" fill="#EACF34"/>
<path d="M409.564 303V171.537H437.185V182.244C440.941 174.543 450.523 169.659 462.173 169.659C486.595 169.659 506.513 191.447 506.513 218.487C506.513 245.526 486.595 267.315 462.173 267.315C450.523 267.315 440.941 262.247 437.185 254.546V303H409.564ZM478.892 218.487C478.892 206.467 470.441 197.08 457.287 197.08C446.392 197.08 437.185 204.406 437.185 218.487C437.185 233.697 446.392 241.588 457.287 241.588C470.441 241.588 478.892 231.445 478.892 218.487Z" fill="#EACF34"/>
<path d="M500.865 148.626C501.056 140.361 508.378 133.035 516.646 132.851C525.097 133.042 532.242 140.361 532.426 148.626C532.236 156.891 525.097 164.217 516.646 164.401C508.378 164.21 501.049 156.891 500.865 148.626ZM529.616 171.537V265.444H502.185V171.537H529.616Z" fill="#EACF34"/>
<path d="M556.665 171.536V184.305C557.414 182.053 564.933 169.652 582.966 169.652C600.06 169.652 617.725 180.733 617.725 207.589V265.437H590.295V216.609C590.295 203.46 586.348 194.821 573.575 194.821C559.857 194.821 556.665 204.964 556.665 215.106V265.437H529.235V171.53H556.665V171.536Z" fill="#EACF34"/>
<path d="M654.362 169.659C666.761 169.659 675.968 174.917 679.35 182.427V171.537H706.78V258.118C706.78 291.545 687.243 303.007 657.18 303.007C641.399 303.007 626.741 299.436 614.159 290.422L621.672 266.573C629.749 273.335 643.277 277.845 657.744 277.845C672.212 277.845 679.35 269.015 679.35 258.499V254.744C675.219 262.07 666.387 267.328 654.362 267.328C630.879 267.328 611.716 245.54 611.716 218.5C611.716 191.461 630.879 169.673 654.362 169.673V169.659ZM639.14 218.487C639.14 232.384 646.278 243.275 659.241 243.275C670.517 243.275 679.343 234.826 679.343 218.487C679.343 202.147 670.51 193.699 659.241 193.699C646.278 193.699 639.14 204.589 639.14 218.487Z" fill="#EACF34"/>
</g>
<defs>
<clipPath id="clip0_384_18640">
<rect width="951" height="303" fill="white"/>
</clipPath>
</defs>
</svg>
