<svg width="700" height="473" viewBox="0 0 700 473" fill="none" xmlns="http://www.w3.org/2000/svg">
<g clip-path="url(#clip0_305_39611)">
<path d="M72.7833 0C96.6227 0 117.538 11.6984 130.719 29.8742L106.251 47.6337C98.721 36.5633 86.7976 29.6699 72.7833 29.6699C48.7318 29.6699 31.1648 50.1459 31.1648 76.2593C31.1648 102.373 48.7318 120.76 72.7833 120.76C87.6308 120.76 100.395 113.027 107.713 101.328L133.855 116.372C121.31 136.848 98.9256 150.423 72.7833 150.423C31.7935 150.423 0.628906 117.204 0.628906 76.2518C0.628906 35.2996 31.7935 0 72.7833 0Z" fill="#D40018"/>
<path d="M148.703 2.08838V58.0759C149.536 55.5713 157.907 41.7768 177.981 41.7768C197.01 41.7768 216.676 54.1033 216.676 83.9775V148.326H186.14V94.0112C186.14 79.3844 181.746 69.7744 167.527 69.7744C152.263 69.7744 148.703 81.0567 148.703 92.3389V148.326H118.167V2.08838H148.703Z" fill="#D40018"/>
<path d="M258.71 41.7844C288.83 41.7844 313.51 66.0212 313.51 96.0997C313.51 126.178 288.83 150.415 258.71 150.415C228.591 150.415 205.585 126.178 205.585 96.0997C205.585 66.0212 229.424 41.7844 258.71 41.7844ZM258.71 120.125C273.558 120.125 283.178 109.682 283.178 96.0997C283.178 81.4729 273.558 70.1906 258.71 70.1906C244.696 70.1906 235.909 81.4729 235.909 96.0997C235.909 109.682 244.696 120.125 258.71 120.125Z" fill="#D40018"/>
<path d="M352.826 41.7844C382.945 41.7844 407.625 66.0212 407.625 96.0997C407.625 126.178 382.945 150.415 352.826 150.415C322.706 150.415 299.7 126.178 299.7 96.0997C299.7 66.0212 323.54 41.7844 352.826 41.7844ZM352.826 120.125C367.673 120.125 377.294 109.682 377.294 96.0997C377.294 81.4729 367.673 70.1906 352.826 70.1906C338.811 70.1906 330.024 81.4729 330.024 96.0997C330.024 109.682 338.811 120.125 352.826 120.125Z" fill="#D40018"/>
<path d="M436.691 41.7844C467.439 41.7844 480.613 58.9159 480.613 77.3035H452.584C452.584 71.8705 449.031 68.7378 438.987 68.7378C428.942 68.7378 424.972 71.8705 424.972 75.8431C424.972 81.9042 434.176 83.3646 445.471 85.2412C463.038 88.1696 485.415 92.1346 485.627 116.576C485.415 142.273 460.531 150.423 438.358 150.423C416.185 150.423 394.224 141.645 394.224 116.16H422.041C422.041 123.265 428.942 126.186 438.358 125.981C451.743 125.981 454.046 120.548 454.251 117.204C454.251 111.771 447.138 110.098 438.146 108.638C420.162 105.71 393.808 103.621 393.808 75.6312C393.808 51.6063 413.261 41.7844 436.684 41.7844H436.691Z" fill="#D40018"/>
<path d="M474.749 18.3875C474.961 9.19371 483.112 1.04415 492.316 0.839844C501.725 1.05172 509.679 9.19371 509.883 18.3875C509.671 27.5813 501.725 35.7309 492.316 35.9352C483.112 35.7233 474.954 27.5813 474.749 18.3875ZM506.755 43.8729V148.334H476.219V43.8729H506.755Z" fill="#D40018"/>
<path d="M532.685 43.8729V58.076C533.519 55.5713 541.889 41.7769 561.964 41.7769C580.993 41.7769 600.658 54.1034 600.658 83.9775V148.327H570.122V94.0112C570.122 79.3844 565.729 69.7744 551.51 69.7744C536.246 69.7744 532.685 81.0567 532.685 92.3389V148.327H502.149V43.8729H532.685Z" fill="#D40018"/>
<path d="M637.254 41.7844C651.056 41.7844 661.306 47.6336 665.071 55.9875V43.8729H695.607V140.185C695.607 177.368 673.858 190.119 640.39 190.119C622.823 190.119 606.506 186.146 592.492 176.12L600.855 149.59C609.847 157.112 624.907 162.129 641.012 162.129C657.117 162.129 665.063 152.307 665.063 140.608V136.431C660.465 144.581 650.632 150.43 637.247 150.43C611.104 150.43 589.772 126.193 589.772 96.1148C589.772 66.0364 611.104 41.7996 637.247 41.7996L637.254 41.7844ZM620.316 96.0997C620.316 111.559 628.262 123.674 642.693 123.674C655.238 123.674 665.071 114.275 665.071 96.0997C665.071 77.924 655.238 68.5259 642.693 68.5259C628.262 68.5259 620.316 80.6405 620.316 96.0997Z" fill="#D40018"/>
<path d="M0 190.134H12.5522V160.888H43.3002V190.134H70.0712V220.424H43.3002V251.138C43.3002 259.076 48.315 264.297 56.057 264.297H70.0712V294.587H39.5353C23.4303 294.587 12.5522 281.633 12.5522 261.997V220.424H0V190.134Z" fill="#D40018"/>
<path d="M89.7214 148.357V204.344C90.5547 201.84 98.9254 188.045 119 188.045C138.029 188.045 157.694 200.372 157.694 230.246V294.595H127.158V240.28C127.158 225.653 122.765 216.043 108.546 216.043C93.2818 216.043 89.7214 227.325 89.7214 238.607V294.595H59.1855V148.357H89.7214Z" fill="#D40018"/>
<path d="M199.73 188.045C229.432 188.045 253.688 212.07 253.901 241.74C253.901 243.829 253.688 245.917 253.484 248.006H176.724C178.602 259.704 187.178 268.058 199.73 268.058C208.934 268.058 216.668 264.085 220.433 257.192L249.507 264.085C241.348 283.517 221.903 296.676 199.73 296.676C170.451 296.676 146.604 272.439 146.604 242.361C146.604 212.282 170.444 188.045 199.73 188.045ZM178.186 230.458H222.107C218.554 221.06 210.396 214.787 199.73 214.787C189.064 214.787 181.534 221.052 178.186 230.458Z" fill="#D40018"/>
<path d="M38.2776 284.977L93.4937 398.625L148.71 284.977H181.124V431.215H150.384V346.814L109.387 431.215H77.5932L36.6035 346.814V431.215H5.85547V284.977H38.27H38.2776Z" fill="#D40018"/>
<path d="M225.038 324.673C254.741 324.673 278.997 348.698 279.209 378.368C279.209 380.457 278.997 382.545 278.793 384.634H202.032C203.911 396.332 212.486 404.686 225.038 404.686C234.242 404.686 241.977 400.713 245.742 393.82L274.815 400.713C266.657 420.145 247.211 433.304 225.038 433.304C195.76 433.304 171.913 409.067 171.913 378.989C171.913 348.91 195.752 324.673 225.038 324.673ZM203.494 367.078H247.416C243.863 357.68 235.704 351.407 225.038 351.407C214.372 351.407 206.843 357.673 203.494 367.078Z" fill="#D40018"/>
<path d="M298.45 326.762V344.726C299.912 341.381 306.397 324.673 332.334 324.673C348.227 324.673 358.264 330.734 363.916 344.726C365.378 339.293 377.513 324.673 402.193 324.673C424.783 324.673 437.956 337 437.956 366.874V431.223H407.42V375.652C407.42 359.981 399.474 352.671 387.763 352.671C374.589 352.671 367.264 361.653 367.264 375.235V431.223H336.728V375.652C336.728 359.981 330.039 352.671 318.116 352.671C305.147 352.671 298.458 361.653 298.458 375.235V431.223H267.922V326.762H298.458H298.45Z" fill="#D40018"/>
<path d="M479.984 324.673C510.103 324.673 534.783 348.91 534.783 378.989C534.783 409.067 510.103 433.304 479.984 433.304C449.864 433.304 426.858 409.067 426.858 378.989C426.858 348.91 450.698 324.673 479.984 324.673ZM479.984 403.014C494.831 403.014 504.452 392.571 504.452 378.989C504.452 364.362 494.831 353.08 479.984 353.08C465.969 353.08 457.182 364.362 457.182 378.989C457.182 392.571 465.969 403.014 479.984 403.014Z" fill="#D40018"/>
<path d="M554.858 326.762V344.938C555.487 341.805 563.433 325.718 583.72 325.09C587.273 324.878 592.295 325.09 597.318 325.922L592.924 356.212C588.114 355.584 583.091 355.168 578.697 355.168C563.85 355.168 554.858 360.389 554.858 377.104V431.215H524.322V326.754H554.858V326.762Z" fill="#D40018"/>
<path d="M603.998 326.762L636.208 396.96L668.206 326.762H699.992L632.86 473.008H601.067L620.096 431.223L572.205 326.762H603.991H603.998Z" fill="#D40018"/>
</g>
<defs>
<clipPath id="clip0_305_39611">
<rect width="700" height="473" fill="white"/>
</clipPath>
</defs>
</svg>
