<svg width="852" height="275" viewBox="0 0 852 275" fill="none" xmlns="http://www.w3.org/2000/svg">
<g clip-path="url(#clip0_384_18588)">
<path d="M66.7745 0C88.8363 0 108.192 10.8435 120.39 27.6908L97.7466 44.1523C90.7782 33.891 79.7438 27.5014 66.7815 27.5014C44.5233 27.5014 28.2661 46.481 28.2661 70.6858C28.2661 94.8907 44.5233 111.934 66.7815 111.934C80.5219 111.934 92.3275 104.773 99.1066 93.9228L123.3 107.866C111.683 126.846 90.9745 139.429 66.7815 139.429C28.841 139.429 0 108.638 0 70.6788C0 32.7197 28.841 0 66.7745 0Z" fill="#F73E00"/>
<path d="M152.33 38.7306C180.203 38.7306 203.043 61.196 203.043 89.0762C203.043 116.956 180.203 139.422 152.33 139.422C124.456 139.422 103.166 116.956 103.166 89.0762C103.166 61.196 125.227 38.7306 152.33 38.7306ZM152.33 111.345C166.07 111.345 174.973 101.666 174.973 89.0762C174.973 75.5184 166.07 65.0607 152.33 65.0607C139.36 65.0607 131.235 75.5184 131.235 89.0762C131.235 101.666 139.367 111.345 152.33 111.345Z" fill="#F73E00"/>
<path d="M239.427 38.7306C267.301 38.7306 290.141 61.196 290.141 89.0762C290.141 116.956 267.301 139.422 239.427 139.422C211.554 139.422 190.263 116.956 190.263 89.0762C190.263 61.196 212.325 38.7306 239.427 38.7306ZM239.427 111.345C253.168 111.345 262.071 101.666 262.071 89.0762C262.071 75.5184 253.168 65.0607 239.427 65.0607C226.458 65.0607 218.333 75.5184 218.333 89.0762C218.333 101.666 226.465 111.345 239.427 111.345Z" fill="#F73E00"/>
<path d="M280.46 1.93579H308.915V71.2609L342.397 40.6664H375.494L338.135 74.5574L377.428 137.493H345.685L317.622 93.1442L308.915 101.28V137.493H280.46V1.93579Z" fill="#F73E00"/>
<path d="M362.713 17.0437C362.91 8.52188 370.453 0.967939 378.971 0.778564C387.678 0.974953 395.039 8.52188 395.228 17.0437C395.032 25.5656 387.678 33.1195 378.971 33.3089C370.453 33.1125 362.903 25.5656 362.713 17.0437ZM392.325 40.6665V137.493H364.066V40.6665H392.325Z" fill="#F73E00"/>
<path d="M416.329 40.6665V53.8315C417.1 51.5099 424.847 38.7236 443.424 38.7236C461.035 38.7236 479.234 50.1492 479.234 77.84V137.486H450.975V87.1404C450.975 73.5826 446.908 64.675 433.75 64.675C419.617 64.675 416.329 75.1327 416.329 85.5903V137.486H388.07V40.6665H416.329Z" fill="#F73E00"/>
<path d="M513.101 38.7306C525.874 38.7306 535.36 44.1523 538.844 51.8956V40.6664H567.103V129.939C567.103 164.405 546.976 176.224 516.004 176.224C499.747 176.224 484.646 172.541 471.684 163.248L479.423 138.657C487.745 145.629 501.681 150.279 516.586 150.279C531.49 150.279 538.844 141.175 538.844 130.332V126.46C534.588 134.014 525.489 139.436 513.101 139.436C488.908 139.436 469.167 116.97 469.167 89.0902C469.167 61.2101 488.908 38.7446 513.101 38.7446V38.7306ZM497.419 89.0762C497.419 103.406 504.773 114.635 518.128 114.635C529.744 114.635 538.837 105.924 538.837 89.0762C538.837 72.2289 529.737 63.5176 518.128 63.5176C504.773 63.5176 497.419 74.7468 497.419 89.0762Z" fill="#F73E00"/>
<path d="M611.997 79.9792L650.513 76.4933L650.317 74.9432C649.931 68.9393 642.381 66.232 632.51 65.6498C619.351 65.0677 601.152 68.3642 595.151 71.268L588.569 48.8025C598.825 43.1844 616.246 38.7306 630.568 38.7306C661.344 38.7306 678.954 50.7383 678.954 78.0434V137.493H650.695V125.296C642.563 132.653 632.117 139.429 615.664 139.429C597.857 139.429 584.503 126.65 583.535 111.738C582.371 96.8265 592.824 81.5293 611.983 79.9792H611.997ZM622.261 116.381C637.361 116.381 650.134 104.184 650.716 99.1481V95.2764L623.81 98.9587C613.743 100.312 609.873 103.798 609.873 108.063C609.873 112.327 614.129 116.388 622.261 116.388V116.381Z" fill="#F73E00"/>
<path d="M699.481 40.6665V53.8315C700.252 51.5099 707.998 38.7236 726.576 38.7236C744.186 38.7236 762.385 50.1492 762.385 77.84V137.486H734.126V87.1404C734.126 73.5826 730.06 64.675 716.902 64.675C702.769 64.675 699.481 75.1327 699.481 85.5903V137.486H671.222V40.6665H699.481Z" fill="#F73E00"/>
<path d="M823.741 51.7063V1.93579H852V137.486H823.741V126.446C819.675 134.189 809.804 139.422 797.802 139.422C772.642 139.422 752.318 116.767 752.318 89.0762C752.318 61.3854 772.642 38.7306 797.802 38.7306C809.804 38.7306 819.675 43.7665 823.741 51.7063ZM823.741 89.0762C823.741 73.3932 814.066 65.2571 802.836 65.2571C789.284 65.2571 780.577 75.7148 780.577 89.0762C780.577 101.47 789.284 111.149 802.836 111.149C814.059 111.149 823.741 103.595 823.741 89.0762Z" fill="#F73E00"/>
<path d="M4.8374 137.514H46.6477C96.7794 137.514 113.233 171.791 113.233 205.486C113.233 239.18 96.0082 273.071 45.8765 273.071H4.8374V137.521V137.514ZM45.4839 244.595C78.391 244.595 84.9668 220.194 84.9668 204.314C84.9668 188.435 78.7765 165.969 46.2551 165.969H33.2858V244.588H45.4769L45.4839 244.595Z" fill="#F73E00"/>
<path d="M149.035 174.302C176.523 174.302 198.97 196.571 199.167 224.072C199.167 226.008 198.97 227.944 198.781 229.88H127.744C129.49 240.723 137.419 248.466 149.035 248.466C157.553 248.466 164.71 244.784 168.194 238.395L195.1 244.784C187.55 262.796 169.554 274.993 149.035 274.993C121.939 274.993 99.8706 252.528 99.8706 224.647C99.8706 196.767 121.932 174.302 149.035 174.302ZM129.097 213.615H169.744C166.456 204.903 158.906 199.089 149.035 199.089C139.164 199.089 132.196 204.896 129.097 213.615Z" fill="#F73E00"/>
<path d="M257.227 187.278V137.507H285.486V273.057H257.227V262.017C253.161 269.761 243.29 274.993 231.288 274.993C206.128 274.993 185.805 252.338 185.805 224.647C185.805 196.957 206.128 174.302 231.288 174.302C243.29 174.302 253.161 179.338 257.227 187.278ZM257.227 224.654C257.227 208.971 247.553 200.835 236.322 200.835C222.771 200.835 214.064 211.293 214.064 224.654C214.064 237.048 222.771 246.727 236.322 246.727C247.546 246.727 257.227 239.173 257.227 224.654Z" fill="#F73E00"/>
<path d="M278.322 152.615C278.518 144.093 286.061 136.539 294.579 136.35C303.286 136.546 310.647 144.093 310.836 152.615C310.64 161.137 303.286 168.691 294.579 168.88C286.061 168.684 278.511 161.137 278.322 152.615ZM307.941 176.238V273.064H279.682V176.238H307.941Z" fill="#F73E00"/>
<path d="M349.744 174.302C369.485 174.302 386.71 186.499 394.456 203.928L368.132 212.254C364.648 205.282 358.065 200.632 349.744 200.632C336.775 200.632 328.649 211.09 328.649 224.647C328.649 237.237 336.782 246.916 349.744 246.916C358.647 246.916 365.23 242.077 368.518 234.909L395.424 242.652C388.455 261.632 370.453 274.993 349.744 274.993C322.648 274.993 300.58 252.528 300.58 224.647C300.58 196.767 322.641 174.302 349.744 174.302Z" fill="#F73E00"/>
<path d="M403.745 215.55L442.261 212.064L442.065 210.514C441.679 204.511 434.129 201.803 424.258 201.221C411.099 200.639 392.9 203.935 386.899 206.839L380.317 184.374C390.573 178.756 407.994 174.302 422.316 174.302C453.092 174.302 470.702 186.31 470.702 213.615V273.064H442.443V260.867C434.311 268.225 423.865 275 407.412 275C389.605 275 376.251 262.221 375.283 247.309C374.119 232.398 384.572 217.1 403.732 215.55H403.745ZM414.002 251.959C429.102 251.959 441.875 239.762 442.457 234.726V230.855L415.551 234.537C405.484 235.891 401.614 239.376 401.614 243.641C401.614 247.905 405.87 251.966 414.002 251.966V251.959Z" fill="#F73E00"/>
<path d="M458.707 176.238H470.323V149.129H498.779V176.238H523.554V204.314H498.779V232.777C498.779 240.134 503.427 244.974 510.584 244.974H523.554V273.05H495.295C480.39 273.05 470.323 261.042 470.323 242.841V204.307H458.707V176.231V176.238Z" fill="#F73E00"/>
<path d="M513.48 152.615C513.676 144.093 521.22 136.539 529.737 136.35C538.444 136.546 545.805 144.093 545.994 152.615C545.798 161.137 538.444 168.691 529.737 168.88C521.22 168.684 513.669 161.137 513.48 152.615ZM543.092 176.238V273.064H514.833V176.238H543.092Z" fill="#F73E00"/>
<path d="M584.902 174.302C612.776 174.302 635.616 196.767 635.616 224.647C635.616 252.528 612.776 274.993 584.902 274.993C557.029 274.993 535.738 252.528 535.738 224.647C535.738 196.767 557.8 174.302 584.902 174.302ZM584.902 246.923C598.642 246.923 607.546 237.244 607.546 224.654C607.546 211.097 598.642 200.639 584.902 200.639C571.933 200.639 563.808 211.097 563.808 224.654C563.808 237.244 571.94 246.923 584.902 246.923Z" fill="#F73E00"/>
<path d="M654.193 176.238V189.403C654.964 187.081 662.711 174.295 681.289 174.295C698.899 174.295 717.098 185.72 717.098 213.411V273.057H688.839V222.712C688.839 209.154 684.773 200.246 671.614 200.246C657.481 200.246 654.193 210.704 654.193 221.162V273.057H625.934V176.231H654.193V176.238Z" fill="#F73E00"/>
</g>
<defs>
<clipPath id="clip0_384_18588">
<rect width="852" height="275" fill="white"/>
</clipPath>
</defs>
</svg>
