<svg width="224" height="73" viewBox="0 0 224 73" fill="none" xmlns="http://www.w3.org/2000/svg">
<path d="M40.4478 49V23.8H43.1118V46.696H57.2238V49H40.4478ZM68.8537 49.18C66.8857 49.18 65.1577 48.772 63.6697 47.956C62.1817 47.116 61.0177 45.976 60.1777 44.536C59.3377 43.072 58.9177 41.404 58.9177 39.532C58.9177 37.66 59.3137 36.004 60.1057 34.564C60.9217 33.124 62.0257 31.996 63.4177 31.18C64.8337 30.34 66.4177 29.92 68.1697 29.92C69.9457 29.92 71.5177 30.328 72.8857 31.144C74.2777 31.936 75.3697 33.064 76.1617 34.528C76.9537 35.968 77.3497 37.636 77.3497 39.532C77.3497 39.652 77.3377 39.784 77.3137 39.928C77.3137 40.048 77.3137 40.18 77.3137 40.324H60.8617V38.416H75.9457L74.9377 39.172C74.9377 37.804 74.6377 36.592 74.0377 35.536C73.4617 34.456 72.6697 33.616 71.6617 33.016C70.6537 32.416 69.4897 32.116 68.1697 32.116C66.8737 32.116 65.7097 32.416 64.6777 33.016C63.6457 33.616 62.8417 34.456 62.2657 35.536C61.6897 36.616 61.4017 37.852 61.4017 39.244V39.64C61.4017 41.08 61.7137 42.352 62.3377 43.456C62.9857 44.536 63.8737 45.388 65.0017 46.012C66.1537 46.612 67.4617 46.912 68.9257 46.912C70.0777 46.912 71.1457 46.708 72.1297 46.3C73.1377 45.892 74.0017 45.268 74.7217 44.428L76.1617 46.084C75.3217 47.092 74.2657 47.86 72.9937 48.388C71.7457 48.916 70.3657 49.18 68.8537 49.18ZM88.5283 49.18C86.7523 49.18 85.3843 48.7 84.4243 47.74C83.4643 46.78 82.9843 45.424 82.9843 43.672V25.924H85.5403V43.528C85.5403 44.632 85.8163 45.484 86.3683 46.084C86.9443 46.684 87.7603 46.984 88.8163 46.984C89.9443 46.984 90.8803 46.66 91.6243 46.012L92.5243 47.848C92.0203 48.304 91.4083 48.64 90.6883 48.856C89.9923 49.072 89.2723 49.18 88.5283 49.18ZM79.6003 32.224V30.1H91.3003V32.224H79.6003ZM96.2773 33.304L96.0973 23.8H98.3653L98.1853 33.304H96.2773ZM109.531 49.18C107.971 49.18 106.495 48.964 105.103 48.532C103.711 48.076 102.619 47.512 101.827 46.84L102.979 44.824C103.747 45.4 104.731 45.904 105.931 46.336C107.131 46.744 108.391 46.948 109.711 46.948C111.511 46.948 112.807 46.672 113.599 46.12C114.391 45.544 114.787 44.788 114.787 43.852C114.787 43.156 114.559 42.616 114.103 42.232C113.671 41.824 113.095 41.524 112.375 41.332C111.655 41.116 110.851 40.936 109.963 40.792C109.075 40.648 108.187 40.48 107.299 40.288C106.435 40.096 105.643 39.82 104.923 39.46C104.203 39.076 103.615 38.56 103.159 37.912C102.727 37.264 102.511 36.4 102.511 35.32C102.511 34.288 102.799 33.364 103.375 32.548C103.951 31.732 104.791 31.096 105.895 30.64C107.023 30.16 108.391 29.92 109.999 29.92C111.223 29.92 112.447 30.088 113.671 30.424C114.895 30.736 115.903 31.156 116.695 31.684L115.579 33.736C114.739 33.16 113.839 32.752 112.879 32.512C111.919 32.248 110.959 32.116 109.999 32.116C108.295 32.116 107.035 32.416 106.219 33.016C105.427 33.592 105.031 34.336 105.031 35.248C105.031 35.968 105.247 36.532 105.679 36.94C106.135 37.348 106.723 37.672 107.443 37.912C108.187 38.128 108.991 38.308 109.855 38.452C110.743 38.596 111.619 38.776 112.483 38.992C113.371 39.184 114.175 39.46 114.895 39.82C115.639 40.156 116.227 40.648 116.659 41.296C117.115 41.92 117.343 42.748 117.343 43.78C117.343 44.884 117.031 45.844 116.407 46.66C115.807 47.452 114.919 48.076 113.743 48.532C112.591 48.964 111.187 49.18 109.531 49.18ZM143.047 49.216C141.127 49.216 139.351 48.904 137.719 48.28C136.111 47.632 134.707 46.732 133.507 45.58C132.331 44.428 131.407 43.072 130.735 41.512C130.087 39.952 129.763 38.248 129.763 36.4C129.763 34.552 130.087 32.848 130.735 31.288C131.407 29.728 132.343 28.372 133.543 27.22C134.743 26.068 136.147 25.18 137.755 24.556C139.387 23.908 141.163 23.584 143.083 23.584C145.003 23.584 146.755 23.884 148.339 24.484C149.947 25.084 151.315 25.996 152.443 27.22L150.787 28.912C149.731 27.856 148.567 27.1 147.295 26.644C146.023 26.188 144.655 25.96 143.191 25.96C141.631 25.96 140.191 26.224 138.871 26.752C137.575 27.256 136.435 27.988 135.451 28.948C134.491 29.884 133.735 30.988 133.183 32.26C132.655 33.508 132.391 34.888 132.391 36.4C132.391 37.888 132.655 39.268 133.183 40.54C133.735 41.812 134.491 42.928 135.451 43.888C136.435 44.824 137.575 45.556 138.871 46.084C140.191 46.588 141.619 46.84 143.155 46.84C144.595 46.84 145.951 46.624 147.223 46.192C148.519 45.76 149.707 45.028 150.787 43.996L152.299 46.012C151.099 47.068 149.695 47.872 148.087 48.424C146.479 48.952 144.799 49.216 143.047 49.216ZM149.743 45.688V36.4H152.299V46.012L149.743 45.688ZM167.002 49.18C165.178 49.18 163.534 48.772 162.07 47.956C160.63 47.116 159.49 45.976 158.65 44.536C157.81 43.072 157.39 41.404 157.39 39.532C157.39 37.636 157.81 35.968 158.65 34.528C159.49 33.088 160.63 31.96 162.07 31.144C163.51 30.328 165.154 29.92 167.002 29.92C168.874 29.92 170.53 30.328 171.97 31.144C173.434 31.96 174.574 33.088 175.39 34.528C176.23 35.968 176.65 37.636 176.65 39.532C176.65 41.404 176.23 43.072 175.39 44.536C174.574 45.976 173.434 47.116 171.97 47.956C170.506 48.772 168.85 49.18 167.002 49.18ZM167.002 46.912C168.37 46.912 169.582 46.612 170.638 46.012C171.694 45.388 172.522 44.524 173.122 43.42C173.746 42.292 174.058 40.996 174.058 39.532C174.058 38.044 173.746 36.748 173.122 35.644C172.522 34.54 171.694 33.688 170.638 33.088C169.582 32.464 168.382 32.152 167.038 32.152C165.694 32.152 164.494 32.464 163.438 33.088C162.382 33.688 161.542 34.54 160.918 35.644C160.294 36.748 159.982 38.044 159.982 39.532C159.982 40.996 160.294 42.292 160.918 43.42C161.542 44.524 162.382 45.388 163.438 46.012C164.494 46.612 165.682 46.912 167.002 46.912ZM181.977 41.44L181.473 23.8H184.497L183.957 41.44H181.977ZM182.985 49.18C182.457 49.18 182.001 49 181.617 48.64C181.257 48.256 181.077 47.812 181.077 47.308C181.077 46.78 181.257 46.348 181.617 46.012C182.001 45.652 182.457 45.472 182.985 45.472C183.537 45.472 183.981 45.652 184.317 46.012C184.677 46.348 184.857 46.78 184.857 47.308C184.857 47.812 184.677 48.256 184.317 48.64C183.981 49 183.537 49.18 182.985 49.18Z" fill="white"/>
</svg>
