<svg width="575" height="536" viewBox="0 0 575 536" fill="none" xmlns="http://www.w3.org/2000/svg">
<g clip-path="url(#clip0_422_2290)">
<path d="M7.79395 497.071V495.429H24.8902V497.071H7.79395ZM13.3445 524.838V490.221C13.3445 487.919 13.9936 486.077 15.2969 484.696C16.6002 483.32 18.4554 482.63 20.8729 482.63C21.9667 482.63 23.0349 482.793 24.0724 483.11C25.1099 483.433 25.989 483.934 26.7046 484.614L25.7437 486.031C25.1406 485.428 24.4199 484.983 23.592 484.701C22.764 484.42 21.8951 484.277 20.9905 484.277C19.1045 484.277 17.6683 484.809 16.687 485.863C15.7057 486.922 15.2151 488.451 15.2151 490.451V524.843H13.3496L13.3445 524.838Z" fill="white"/>
<path d="M30.8344 524.838V495.434H32.6437V503.537L32.4751 503.025C33.2673 500.57 34.6523 498.652 36.6354 497.275C38.6185 495.899 41.0973 495.209 44.077 495.209V497.076H43.5659C40.1671 497.076 37.5094 498.15 35.5825 500.304C33.6557 502.457 32.6948 505.424 32.6948 509.2V524.838H30.8242H30.8344Z" fill="white"/>
<path d="M63.1004 525.007C60.3456 525.007 57.8821 524.372 55.715 523.109C53.5429 521.845 51.8256 520.086 50.5632 517.84C49.3008 515.594 48.667 513.016 48.667 510.105C48.667 507.194 49.3008 504.626 50.5632 502.401C51.8256 500.171 53.5429 498.416 55.715 497.132C57.8872 495.848 60.3456 495.204 63.1004 495.204C65.8552 495.204 68.3289 495.838 70.5164 497.101C72.7039 498.365 74.4212 500.115 75.6683 502.345C76.9154 504.575 77.5338 507.159 77.5338 510.105C77.5338 513.052 76.9102 515.543 75.6683 517.809C74.4212 520.075 72.7039 521.84 70.5164 523.109C68.3289 524.372 65.8552 525.007 63.1004 525.007ZM63.1004 523.308C65.5128 523.308 67.6747 522.751 69.5811 521.636C71.4875 520.52 72.9799 518.965 74.0532 516.96C75.1265 514.96 75.6683 512.673 75.6683 510.105C75.6683 507.537 75.1316 505.204 74.0532 503.22C72.9799 501.235 71.4875 499.7 69.5811 498.6C67.6747 497.506 65.5332 496.958 63.1566 496.958C60.78 496.958 58.5874 497.506 56.7014 498.6C54.8155 499.695 53.3129 501.235 52.1987 503.22C51.0845 505.204 50.5274 507.496 50.5274 510.105C50.5274 512.714 51.0845 514.96 52.1987 516.96C53.3129 518.965 54.8104 520.52 56.7014 521.636C58.5874 522.751 60.7187 523.308 63.1004 523.308Z" fill="white"/>
<path d="M123.333 495.204C125.71 495.204 127.759 495.674 129.477 496.621C131.194 497.567 132.523 498.953 133.468 500.785C134.414 502.616 134.884 504.872 134.884 507.558V524.838H133.019V507.67C133.019 504.156 132.16 501.496 130.443 499.68C128.725 497.869 126.318 496.958 123.226 496.958C120.885 496.958 118.846 497.449 117.113 498.432C115.375 499.414 114.047 500.81 113.121 502.626C112.196 504.437 111.736 506.555 111.736 508.975V524.838H109.871V507.67C109.871 504.156 109.022 501.496 107.326 499.68C105.629 497.869 103.232 496.958 100.135 496.958C97.7579 496.958 95.7084 497.449 93.9911 498.432C92.2738 499.414 90.9552 500.81 90.0301 502.626C89.105 504.437 88.645 506.555 88.645 508.975V524.838H86.7744V495.434H88.5837V503.649L88.3588 503.138C89.2277 500.723 90.6792 498.795 92.7185 497.357C94.7578 495.925 97.2672 495.204 100.247 495.204C103.227 495.204 105.767 495.961 107.75 497.47C109.733 498.979 110.965 501.245 111.455 504.268L110.944 504.043C111.701 501.439 113.152 499.311 115.304 497.669C117.456 496.027 120.134 495.204 123.343 495.204H123.333Z" fill="white"/>
<path d="M156.391 497.071V495.429H173.487V497.071H156.391ZM161.936 524.838V490.221C161.936 487.919 162.585 486.077 163.888 484.696C165.192 483.32 167.047 482.63 169.465 482.63C170.558 482.63 171.626 482.793 172.664 483.11C173.701 483.433 174.581 483.934 175.296 484.614L174.335 486.031C173.732 485.428 173.012 484.983 172.184 484.701C171.356 484.42 170.487 484.277 169.582 484.277C167.696 484.277 166.26 484.809 165.279 485.863C164.297 486.922 163.807 488.451 163.807 490.451V524.843H161.941L161.936 524.838Z" fill="white"/>
<path d="M190.41 525.007C187.502 525.007 184.936 524.372 182.713 523.109C180.484 521.845 178.731 520.075 177.448 517.809C176.165 515.543 175.521 512.975 175.521 510.105C175.521 507.235 176.114 504.626 177.305 502.401C178.496 500.171 180.137 498.416 182.232 497.132C184.328 495.848 186.694 495.204 189.336 495.204C191.979 495.204 194.289 495.828 196.384 497.071C198.48 498.319 200.121 500.048 201.311 502.253C202.502 504.463 203.095 507.005 203.095 509.875V510.386H176.774V508.857H202.078L201.342 509.762C201.342 507.307 200.821 505.107 199.783 503.163C198.746 501.219 197.32 499.69 195.51 498.575C193.701 497.46 191.641 496.902 189.342 496.902C187.042 496.902 184.982 497.46 183.173 498.575C181.363 499.69 179.937 501.219 178.9 503.163C177.862 505.107 177.341 507.327 177.341 509.819V510.156C177.341 512.724 177.908 515.001 179.038 516.986C180.167 518.97 181.716 520.52 183.679 521.63C185.641 522.746 187.885 523.303 190.415 523.303C192.342 523.303 194.161 522.945 195.878 522.229C197.596 521.513 199.022 520.418 200.151 518.945L201.342 520.193C200.018 521.779 198.408 522.981 196.502 523.789C194.596 524.603 192.567 525.007 190.415 525.007H190.41Z" fill="white"/>
<path d="M223.866 525.007C220.958 525.007 218.392 524.372 216.169 523.109C213.94 521.845 212.187 520.075 210.904 517.809C209.622 515.543 208.978 512.975 208.978 510.105C208.978 507.235 209.57 504.626 210.761 502.401C211.952 500.171 213.593 498.416 215.688 497.132C217.784 495.848 220.15 495.204 222.793 495.204C225.435 495.204 227.745 495.828 229.841 497.071C231.936 498.319 233.577 500.048 234.768 502.253C235.958 504.463 236.551 507.005 236.551 509.875V510.386H210.23V508.857H235.534L234.798 509.762C234.798 507.307 234.277 505.107 233.239 503.163C232.202 501.219 230.776 499.69 228.967 498.575C227.157 497.46 225.098 496.902 222.798 496.902C220.498 496.902 218.438 497.46 216.629 498.575C214.819 499.69 213.393 501.219 212.356 503.163C211.318 505.107 210.797 507.327 210.797 509.819V510.156C210.797 512.724 211.364 515.001 212.494 516.986C213.623 518.97 215.172 520.52 217.135 521.63C219.097 522.746 221.341 523.303 223.871 523.303C225.798 523.303 227.617 522.945 229.335 522.229C231.052 521.513 232.478 520.418 233.607 518.945L234.798 520.193C233.474 521.779 231.864 522.981 229.958 523.789C228.052 524.603 226.023 525.007 223.871 525.007H223.866Z" fill="white"/>
<path d="M245.771 524.838V482.799H247.642V524.838H245.771Z" fill="white"/>
<path d="M261.115 487.725C260.624 487.725 260.19 487.535 259.811 487.157C259.433 486.778 259.244 486.364 259.244 485.909C259.244 485.382 259.433 484.937 259.811 484.579C260.19 484.221 260.624 484.042 261.115 484.042C261.641 484.042 262.086 484.221 262.444 484.579C262.801 484.937 262.98 485.361 262.98 485.852C262.98 486.344 262.801 486.778 262.444 487.157C262.086 487.535 261.641 487.725 261.115 487.725ZM260.205 524.838V495.434H262.076V524.838H260.205Z" fill="white"/>
<path d="M288.509 495.204C290.921 495.204 293.012 495.674 294.765 496.621C296.518 497.567 297.888 498.953 298.869 500.785C299.85 502.616 300.341 504.872 300.341 507.558V524.838H298.47V507.67C298.47 504.156 297.581 501.496 295.808 499.68C294.034 497.869 291.545 496.958 288.335 496.958C285.882 496.958 283.766 497.449 281.993 498.432C280.219 499.414 278.86 500.81 277.919 502.626C276.974 504.437 276.503 506.555 276.503 508.975V524.838H274.633V495.434H276.442V503.706L276.217 503.194C277.122 500.739 278.624 498.795 280.72 497.357C282.815 495.925 285.407 495.204 288.504 495.204H288.509Z" fill="white"/>
<path d="M323.776 523.815C321.021 523.815 318.547 523.201 316.36 521.973C314.172 520.745 312.434 519.057 311.151 516.904C309.869 514.75 309.225 512.279 309.225 509.481C309.225 506.683 309.863 504.212 311.151 502.058C312.434 499.905 314.172 498.227 316.36 497.015C318.547 495.807 321.021 495.204 323.776 495.204C326.53 495.204 328.907 495.797 331.023 496.989C333.134 498.181 334.815 499.843 336.062 501.977C337.309 504.11 337.933 506.611 337.933 509.481C337.933 512.351 337.309 514.863 336.062 517.016C334.815 519.17 333.139 520.843 331.023 522.029C328.907 523.221 326.495 523.815 323.776 523.815ZM323.832 522.116C326.321 522.116 328.519 521.59 330.425 520.531C332.331 519.472 333.829 517.983 334.928 516.055C336.021 514.126 336.568 511.937 336.568 509.481C336.568 507.026 336.021 504.805 334.928 502.938C333.834 501.066 332.331 499.603 330.425 498.549C328.519 497.49 326.321 496.963 323.832 496.963C321.343 496.963 319.247 497.495 317.32 498.549C315.394 499.608 313.876 501.071 312.761 502.938C311.647 504.811 311.09 506.99 311.09 509.481C311.09 511.972 311.647 514.126 312.761 516.055C313.876 517.983 315.394 519.472 317.32 520.531C319.247 521.59 321.414 522.116 323.832 522.116ZM324.568 536C321.925 536 319.426 535.575 317.065 534.726C314.704 533.877 312.807 532.716 311.376 531.243L312.45 529.826C313.957 531.258 315.751 532.363 317.826 533.14C319.901 533.913 322.13 534.302 324.506 534.302C328.621 534.302 331.657 533.33 333.619 531.386C335.582 529.442 336.563 526.388 336.563 522.234V513.338L337.131 509.486L336.619 505.634V495.434H338.429V522.009C338.429 526.807 337.279 530.337 334.974 532.603C332.674 534.869 329.198 536.005 324.558 536.005L324.568 536Z" fill="white"/>
<path d="M360.288 497.071V495.429H377.384V497.071H360.288ZM373.306 525.007C370.888 525.007 369.038 524.326 367.76 522.966C366.477 521.605 365.834 519.774 365.834 517.472V488.973H367.699V517.19C367.699 519.19 368.19 520.725 369.171 521.779C370.152 522.838 371.583 523.365 373.474 523.365C375.365 523.365 376.986 522.781 378.228 521.61L379.188 522.971C378.473 523.651 377.584 524.163 376.526 524.5C375.468 524.838 374.394 525.012 373.301 525.012L373.306 525.007Z" fill="white"/>
<path d="M397.48 525.007C394.725 525.007 392.262 524.372 390.095 523.109C387.923 521.845 386.205 520.086 384.943 517.84C383.681 515.594 383.047 513.016 383.047 510.105C383.047 507.194 383.681 504.626 384.943 502.401C386.205 500.171 387.923 498.416 390.095 497.132C392.267 495.848 394.725 495.204 397.48 495.204C400.235 495.204 402.709 495.838 404.896 497.101C407.084 498.365 408.801 500.115 410.048 502.345C411.295 504.575 411.914 507.159 411.914 510.105C411.914 513.052 411.29 515.543 410.048 517.809C408.801 520.075 407.084 521.84 404.896 523.109C402.709 524.372 400.235 525.007 397.48 525.007ZM397.48 523.308C399.893 523.308 402.055 522.751 403.961 521.636C405.867 520.52 407.36 518.965 408.433 516.96C409.506 514.96 410.048 512.673 410.048 510.105C410.048 507.537 409.511 505.204 408.433 503.22C407.36 501.235 405.867 499.7 403.961 498.6C402.055 497.506 399.913 496.958 397.536 496.958C395.16 496.958 392.967 497.506 391.081 498.6C389.195 499.695 387.693 501.235 386.579 503.22C385.464 505.204 384.907 507.496 384.907 510.105C384.907 512.714 385.464 514.96 386.579 516.96C387.693 518.965 389.19 520.52 391.081 521.636C392.967 522.751 395.099 523.308 397.48 523.308Z" fill="white"/>
<path d="M430.426 497.071V495.429H447.522V497.071H430.426ZM435.971 524.838V490.221C435.971 487.919 436.62 486.077 437.924 484.696C439.227 483.32 441.082 482.63 443.5 482.63C444.593 482.63 445.662 482.793 446.699 483.11C447.737 483.433 448.616 483.934 449.331 484.614L448.37 486.031C447.767 485.428 447.047 484.983 446.219 484.701C445.391 484.42 444.522 484.277 443.617 484.277C441.731 484.277 440.295 484.809 439.314 485.863C438.332 486.922 437.842 488.451 437.842 490.451V524.843H435.976L435.971 524.838ZM454.371 487.725C453.88 487.725 453.446 487.535 453.067 487.157C452.689 486.778 452.5 486.364 452.5 485.909C452.5 485.382 452.689 484.937 453.067 484.579C453.446 484.221 453.88 484.041 454.371 484.041C454.897 484.041 455.342 484.221 455.7 484.579C456.057 484.937 456.236 485.361 456.236 485.852C456.236 486.344 456.057 486.778 455.7 487.157C455.342 487.535 454.897 487.725 454.371 487.725ZM453.466 524.838V495.434H455.332V524.838H453.466Z" fill="white"/>
<path d="M467.899 524.838V482.799H469.77V524.838H467.899Z" fill="white"/>
<path d="M482.333 524.838V482.799H484.204V524.838H482.333Z" fill="white"/>
<path d="M497.671 487.725C497.181 487.725 496.746 487.535 496.368 487.157C495.99 486.778 495.801 486.364 495.801 485.909C495.801 485.382 495.99 484.937 496.368 484.579C496.746 484.221 497.181 484.042 497.671 484.042C498.198 484.042 498.642 484.221 499 484.579C499.358 484.937 499.537 485.361 499.537 485.852C499.537 486.344 499.358 486.778 499 487.157C498.642 487.535 498.198 487.725 497.671 487.725ZM496.767 524.838V495.434H498.637V524.838H496.767Z" fill="white"/>
<path d="M525.071 495.204C527.483 495.204 529.573 495.674 531.326 496.621C533.08 497.567 534.449 498.953 535.431 500.785C536.412 502.616 536.903 504.872 536.903 507.558V524.838H535.032V507.67C535.032 504.156 534.143 501.496 532.369 499.68C530.596 497.869 528.107 496.958 524.897 496.958C522.444 496.958 520.328 497.449 518.554 498.432C516.781 499.414 515.421 500.81 514.481 502.626C513.535 504.437 513.065 506.555 513.065 508.975V524.838H511.194V495.434H513.004V503.706L512.779 503.194C513.683 500.739 515.186 498.795 517.281 497.357C519.377 495.925 521.968 495.204 525.065 495.204H525.071Z" fill="white"/>
<path d="M560.336 523.815C557.581 523.815 555.108 523.201 552.92 521.973C550.733 520.745 548.995 519.057 547.712 516.904C546.429 514.75 545.785 512.279 545.785 509.481C545.785 506.683 546.424 504.212 547.712 502.058C548.995 499.905 550.733 498.227 552.92 497.015C555.108 495.807 557.581 495.204 560.336 495.204C563.091 495.204 565.468 495.797 567.583 496.989C569.694 498.181 571.376 499.843 572.623 501.977C573.87 504.11 574.494 506.611 574.494 509.481C574.494 512.351 573.87 514.863 572.623 517.016C571.376 519.17 569.699 520.843 567.583 522.029C565.468 523.221 563.055 523.815 560.336 523.815ZM560.392 522.116C562.881 522.116 565.079 521.59 566.985 520.531C568.892 519.472 570.389 517.983 571.488 516.055C572.582 514.126 573.129 511.937 573.129 509.481C573.129 507.026 572.582 504.805 571.488 502.938C570.395 501.066 568.892 499.603 566.985 498.549C565.079 497.49 562.881 496.963 560.392 496.963C557.903 496.963 555.808 497.495 553.881 498.549C551.954 499.608 550.436 501.071 549.322 502.938C548.208 504.811 547.651 506.99 547.651 509.481C547.651 511.972 548.208 514.126 549.322 516.055C550.436 517.983 551.954 519.472 553.881 520.531C555.808 521.59 557.975 522.116 560.392 522.116ZM561.128 536C558.486 536 555.987 535.575 553.625 534.726C551.264 533.877 549.368 532.716 547.937 531.243L549.01 529.826C550.518 531.258 552.312 532.363 554.387 533.14C556.462 533.913 558.69 534.302 561.067 534.302C565.181 534.302 568.217 533.33 570.18 531.386C572.142 529.442 573.124 526.388 573.124 522.234V513.338L573.691 509.486L573.18 505.634V495.434H574.989V522.009C574.989 526.807 573.839 530.337 571.534 532.603C569.234 534.869 565.759 536.005 561.118 536.005L561.128 536Z" fill="white"/>
<path d="M8.20801 2.95679H56.4761V99.2515L146.45 2.95679L200.958 3.28418L108.69 101.221L208.512 233.007H155.317L79.1381 132.441L56.4812 156.76V232.68H8.20801V2.95679Z" fill="#FF6206"/>
<path d="M234.446 2.95679V233.012H186.178V2.95679H234.446Z" fill="#FF6206"/>
<path d="M313.252 0C350.03 0 396.325 21.0351 397.639 74.2775L351.339 74.6049C349.371 53.5698 331.636 44.367 312.592 44.367C289.935 44.367 276.473 52.2551 276.473 67.6989C276.473 86.1046 301.098 92.3455 329.668 99.2515C363.487 108.127 403.22 119.299 403.22 161.697C403.22 214.939 362.174 235.974 317.192 235.974C281.073 235.974 226.564 221.185 225.251 155.456L272.533 155.128C273.519 183.719 299.784 191.607 317.846 191.607C337.549 191.607 350.025 182.732 350.025 165.973C350.025 149.215 329.668 144.938 306.684 139.352C269.251 130.477 223.283 119.304 223.283 70.6659C223.283 22.0275 262.03 0 313.252 0Z" fill="#FF6206"/>
<path d="M474.472 0C511.251 0 557.546 21.0351 558.86 74.2775L512.559 74.6049C510.592 53.5698 492.857 44.367 473.813 44.367C451.156 44.367 437.694 52.2551 437.694 67.6989C437.694 86.1046 462.319 92.3455 490.889 99.2515C524.708 108.127 564.441 119.299 564.441 161.697C564.441 214.939 523.395 235.974 478.413 235.974C442.294 235.974 387.785 221.185 386.472 155.456L433.753 155.128C434.74 183.719 461.005 191.607 479.067 191.607C498.77 191.607 511.246 182.732 511.246 165.973C511.246 149.215 490.889 144.938 467.905 139.352C430.472 130.477 384.504 119.304 384.504 70.6659C384.504 22.0275 423.25 0 474.472 0Z" fill="#FF6206"/>
<path d="M113.285 224.009C177.642 224.009 227.551 277.579 227.551 343.968C227.551 410.358 177.642 460.638 113.285 460.638C48.9274 460.638 0 408.383 0 343.968C0 279.553 48.9274 224.009 113.285 224.009ZM47.9409 343.968C47.9409 382.422 75.5249 412.987 113.285 412.987C151.045 412.987 179.615 382.422 179.615 343.968C179.615 303.545 151.05 271.665 113.285 271.665C75.5198 271.665 47.9409 303.545 47.9409 343.968Z" fill="#FF6206"/>
<path d="M218.684 457.354V227.298H270.565L375.309 384.724V227.298H423.25V457.354H371.369L266.952 299.929V457.354H218.684Z" fill="#FF6206"/>
</g>
<defs>
<clipPath id="clip0_422_2290">
<rect width="575" height="536" fill="white"/>
</clipPath>
</defs>
</svg>
