<svg width="359" height="81" viewBox="0 0 359 81" fill="none" xmlns="http://www.w3.org/2000/svg">
<path d="M62.596 49V26.6H63.492L79.94 47.72H79.396V26.6H80.484V49H79.588L63.14 27.88H63.684V49H62.596ZM89.5858 37.128H101.938V38.12H89.5858V37.128ZM89.7778 48.008H103.826V49H88.6898V26.6H103.378V27.592H89.7778V48.008ZM106.392 49L115.384 37V37.864L107 26.6H108.28L115.96 36.904H115.544L123.224 26.6H124.44L116.152 37.704V37.128L125.08 49H123.8L115.512 37.928H115.928L107.64 49H106.392ZM133.196 49V27.592H124.972V26.6H142.476V27.592H134.252V49H133.196Z" fill="white"/>
</svg>
