<svg width="701" height="81" viewBox="0 0 701 81" fill="none" xmlns="http://www.w3.org/2000/svg">
<path d="M62.148 49V26.6H64.1L79.556 46.056H78.532V26.6H80.868V49H78.916L63.492 29.544H64.516V49H62.148ZM90.2913 36.616H102.131V38.632H90.2913V36.616ZM90.5473 46.952H104.019V49H88.1793V26.6H103.539V28.648H90.5473V46.952ZM106.2 49L115.384 36.584V38.408L106.744 26.6H109.464L116.728 36.456L115.672 36.488L122.936 26.6H125.496L116.952 38.248V36.584L126.104 49H123.352L115.608 38.472H116.6L108.92 49H106.2ZM133.688 49V28.648H125.816V26.6H143.928V28.648H136.056V49H133.688Z" fill="#EB3300"/>
</svg>
