<svg width="171" height="73" viewBox="0 0 171 73" fill="none" xmlns="http://www.w3.org/2000/svg">
<path d="M39.3747 49V23.8H50.2827C52.5387 23.8 54.4827 24.172 56.1147 24.916C57.7467 25.636 59.0067 26.68 59.8947 28.048C60.7827 29.416 61.2267 31.048 61.2267 32.944C61.2267 34.816 60.7827 36.436 59.8947 37.804C59.0067 39.172 57.7467 40.228 56.1147 40.972C54.4827 41.692 52.5387 42.052 50.2827 42.052H42.6147L45.2067 39.424V49H39.3747ZM45.2067 40.072L42.6147 37.3H49.9587C51.7587 37.3 53.1027 36.916 53.9907 36.148C54.8787 35.38 55.3227 34.312 55.3227 32.944C55.3227 31.552 54.8787 30.472 53.9907 29.704C53.1027 28.936 51.7587 28.552 49.9587 28.552H42.6147L45.2067 25.78V40.072ZM65.3903 49V23.8H71.2223V44.248H83.8583V49H65.3903ZM83.9455 49L95.1775 23.8H100.938L112.206 49H106.086L96.8695 26.752H99.1735L89.9215 49H83.9455ZM89.5615 43.6L91.1095 39.172H104.07L105.654 43.6H89.5615ZM119.537 49V38.704L120.869 42.232L109.781 23.8H115.973L124.469 37.948H120.905L129.437 23.8H135.161L124.073 42.232L125.369 38.704V49H119.537Z" fill="white"/>
</svg>
