<svg width="768" height="453" viewBox="0 0 768 453" fill="none" xmlns="http://www.w3.org/2000/svg">
<g clip-path="url(#clip0_320_36705)">
<path d="M5.51367 138.675V1.18103H54.3513C84.4799 1.18103 103.981 16.3064 103.981 45.7675C103.981 75.2285 84.487 89.5713 54.3513 89.5713H34.4582V138.675H5.51367ZM34.4653 29.6603V61.0849H53.959C68.7309 61.0849 75.2288 55.7846 75.2288 44.9777C75.2288 36.1416 68.7309 29.6532 53.959 29.6532H34.4653V29.6603Z" fill="#D40018"/>
<path d="M119.337 40.4671V57.5561C119.929 54.6107 127.411 39.4853 146.513 38.8948C149.858 38.6956 154.587 38.8948 159.316 39.6774L155.179 68.1566C150.65 67.5661 145.921 67.1748 141.791 67.1748C127.811 67.1748 119.344 72.0838 119.344 87.7997V138.675H90.5923V40.4671H119.344H119.337Z" fill="#D40018"/>
<path d="M190.03 38.4965C217.997 38.4965 240.836 61.0849 241.035 88.9808C241.035 90.9444 240.836 92.908 240.643 94.8716H168.367C170.144 105.871 178.211 113.725 190.03 113.725C198.696 113.725 205.978 109.99 209.523 103.509L236.899 109.99C229.217 128.26 210.907 140.632 190.03 140.632C162.462 140.632 140.008 117.844 140.008 89.5642C140.008 61.2841 162.454 38.4965 190.03 38.4965ZM169.751 78.3731H211.107C207.761 69.5369 200.079 63.639 190.037 63.639C179.994 63.639 172.904 69.5298 169.751 78.3731Z" fill="#D40018"/>
<path d="M230.401 177.962V40.4671H259.353V51.6653C263.29 43.6117 273.333 38.5035 285.544 38.5035C311.143 38.5035 332.021 61.2912 332.021 89.5712C332.021 117.851 311.143 140.639 285.544 140.639C273.333 140.639 263.29 135.339 259.353 127.285V177.962H230.401ZM303.069 89.5712C303.069 77 294.21 67.182 280.423 67.182C269.003 67.182 259.353 74.8443 259.353 89.5712C259.353 105.479 269.003 113.732 280.423 113.732C294.21 113.732 303.069 103.124 303.069 89.5712Z" fill="#D40018"/>
<path d="M344.417 80.3367L383.604 76.8008L383.405 75.2285C383.012 69.1385 375.33 66.3923 365.288 65.8018C351.899 65.2113 333.383 68.5551 327.277 71.5005L320.58 48.7128C331.015 43.0142 348.74 38.4965 363.312 38.4965C394.624 38.4965 412.542 50.6764 412.542 78.3731V138.675H383.79V126.303C375.516 133.766 364.888 140.639 348.148 140.639C330.031 140.639 316.443 127.676 315.458 112.551C314.274 97.4257 324.909 81.909 344.403 80.3367H344.417ZM354.852 117.268C370.216 117.268 383.212 104.896 383.804 99.7877V95.8605L356.429 99.5956C346.186 100.969 342.249 104.505 342.249 108.83C342.249 113.156 346.578 117.275 354.852 117.275V117.268Z" fill="#D40018"/>
<path d="M433.426 40.4671V57.5561C434.018 54.6107 441.5 39.4853 460.602 38.8948C463.947 38.6956 468.676 38.8948 473.405 39.6774L469.268 68.1566C464.739 67.5661 460.01 67.1748 455.88 67.1748C441.9 67.1748 433.433 72.0838 433.433 87.7997V138.675H404.681V40.4671H433.433H433.426Z" fill="#D40018"/>
<path d="M458.233 16.4985C458.433 7.85438 466.108 0.192091 474.774 0C483.633 0.199205 491.122 7.85438 491.315 16.4985C491.115 25.1426 483.633 32.8048 474.774 32.9969C466.108 32.7977 458.426 25.1426 458.233 16.4985ZM488.369 40.4671V138.682H459.617V40.4671H488.369Z" fill="#D40018"/>
<path d="M512.785 40.4672V53.821C513.569 51.4661 521.451 38.4965 540.353 38.4965C558.27 38.4965 576.786 50.0859 576.786 78.1739V138.675H548.035V87.6077C548.035 73.8554 543.898 64.82 530.509 64.82C516.13 64.82 512.785 75.4277 512.785 86.0354V138.675H484.033V40.4672H512.785Z" fill="#D40018"/>
<path d="M611.245 38.4965C624.24 38.4965 633.891 43.9959 637.436 51.8503V40.4601H666.188V131.013C666.188 165.974 645.71 177.962 614.198 177.962C597.657 177.962 582.293 174.226 569.105 164.8L576.979 139.856C585.446 146.928 599.625 151.645 614.79 151.645C629.954 151.645 637.436 142.41 637.436 131.412V127.484C633.106 135.147 623.848 140.646 611.245 140.646C586.63 140.646 566.544 117.858 566.544 89.5784C566.544 61.2984 586.63 38.5107 611.245 38.5107V38.4965ZM595.296 89.5713C595.296 104.106 602.778 115.496 616.366 115.496C628.185 115.496 637.436 106.66 637.436 89.5713C637.436 72.4823 628.178 63.6461 616.366 63.6461C602.778 63.6461 595.296 75.0364 595.296 89.5713Z" fill="#D40018"/>
<path d="M0 177.983H11.8189V150.485H40.7706V177.983H65.9775V206.462H40.7706V235.333C40.7706 242.796 45.4995 247.705 52.782 247.705H65.9775V276.184H37.2256C22.0615 276.184 11.8189 264.004 11.8189 245.542V206.455H0V177.976V177.983Z" fill="#D40018"/>
<path d="M84.48 138.697V191.337C85.2646 188.982 93.1462 176.012 112.048 176.012C129.965 176.012 148.482 187.602 148.482 215.69V276.191H119.73V225.123C119.73 211.371 115.593 202.336 102.205 202.336C87.8252 202.336 84.48 212.943 84.48 223.551V276.191H55.728V138.697H84.48Z" fill="#D40018"/>
<path d="M188.061 176.019C216.028 176.019 238.867 198.608 239.067 226.504C239.067 228.467 238.867 230.431 238.674 232.394H166.399C168.175 243.393 176.242 251.248 188.061 251.248C196.727 251.248 204.009 247.513 207.554 241.031L234.93 247.513C227.248 265.783 208.938 278.155 188.061 278.155C160.493 278.155 138.039 255.367 138.039 227.087C138.039 198.807 160.486 176.019 188.061 176.019ZM167.775 215.896H209.131C205.786 207.06 198.104 201.162 188.061 201.162C178.018 201.162 170.928 207.053 167.775 215.896Z" fill="#D40018"/>
<path d="M34.4653 276.219V413.714H5.51367V276.219H34.4653Z" fill="#D40018"/>
<path d="M57.6963 315.499V328.852C58.4809 326.498 66.3625 313.528 85.2642 313.528C103.182 313.528 121.698 325.117 121.698 353.205V413.707H92.9461V362.639C92.9461 348.887 88.8091 339.851 75.4211 339.851C61.0415 339.851 57.6963 350.459 57.6963 361.067V413.707H28.9443V315.491H57.6963V315.499Z" fill="#D40018"/>
<path d="M156.164 313.535C169.159 313.535 178.81 319.034 182.355 326.889V315.498H211.107V406.052C211.107 441.012 190.629 453 159.117 453C142.576 453 127.212 449.265 114.024 439.838L121.898 414.895C130.365 421.967 144.544 426.684 159.709 426.684C174.873 426.684 182.355 417.449 182.355 406.45V402.523C178.025 410.185 168.767 415.685 156.164 415.685C131.549 415.685 111.463 392.897 111.463 364.617C111.463 336.337 131.549 313.549 156.164 313.549V313.535ZM140.208 364.61C140.208 379.145 147.69 390.535 161.278 390.535C173.097 390.535 182.348 381.699 182.348 364.61C182.348 347.521 173.089 338.685 161.278 338.685C147.69 338.685 140.208 350.075 140.208 364.61Z" fill="#D40018"/>
<path d="M232.569 315.499V332.588C233.161 329.642 240.643 314.517 259.745 313.926C263.09 313.727 267.819 313.926 272.548 314.709L268.411 343.188C263.882 342.598 259.153 342.206 255.023 342.206C241.043 342.206 232.576 347.115 232.576 362.831V413.707H203.824V315.491H232.576L232.569 315.499Z" fill="#D40018"/>
<path d="M303.261 313.535C331.229 313.535 354.068 336.123 354.267 364.019C354.267 365.983 354.068 367.946 353.875 369.91H281.599C283.375 380.909 291.443 388.763 303.261 388.763C311.928 388.763 319.21 385.028 322.755 378.547L350.13 385.028C342.449 403.298 324.139 415.67 303.261 415.67C275.694 415.67 253.24 392.883 253.24 364.603C253.24 336.323 275.686 313.535 303.261 313.535ZM282.976 353.412H324.331C320.986 344.575 313.304 338.677 303.261 338.677C293.219 338.677 286.129 344.568 282.976 353.412Z" fill="#D40018"/>
<path d="M413.34 326.697V276.212H442.092V413.707H413.34V402.509C409.203 410.363 399.161 415.67 386.949 415.67C361.35 415.67 340.672 392.691 340.672 364.603C340.672 336.515 361.35 313.535 386.949 313.535C399.161 313.535 409.203 318.643 413.34 326.697ZM413.34 364.61C413.34 348.702 403.497 340.449 392.071 340.449C378.283 340.449 369.424 351.057 369.424 364.61C369.424 377.181 378.283 386.999 392.071 386.999C403.49 386.999 413.34 379.337 413.34 364.61Z" fill="#D40018"/>
<path d="M434.81 291.537C435.01 282.893 442.685 275.231 451.351 275.039C460.21 275.238 467.699 282.893 467.892 291.537C467.692 300.181 460.21 307.843 451.351 308.036C442.685 307.836 435.003 300.181 434.81 291.537ZM464.939 315.499V413.714H436.187V315.499H464.939Z" fill="#D40018"/>
<path d="M507.471 313.535C535.438 313.535 558.277 336.123 558.477 364.019C558.477 365.983 558.277 367.946 558.085 369.91H485.809C487.585 380.909 495.652 388.763 507.471 388.763C516.137 388.763 523.42 385.028 526.965 378.547L554.34 385.028C546.658 403.298 528.348 415.67 507.471 415.67C479.903 415.67 457.449 392.883 457.449 364.603C457.449 336.323 479.896 313.535 507.471 313.535ZM487.193 353.412H528.548C525.203 344.575 517.521 338.677 507.478 338.677C497.435 338.677 490.345 344.568 487.193 353.412Z" fill="#D40018"/>
<path d="M576.594 315.499V328.852C577.378 326.498 585.26 313.528 604.162 313.528C622.079 313.528 640.596 325.117 640.596 353.205V413.707H611.844V362.639C611.844 348.887 607.707 339.851 594.319 339.851C579.939 339.851 576.594 350.459 576.594 361.067V413.707H547.842V315.491H576.594V315.499Z" fill="#D40018"/>
<path d="M628.969 315.499H640.788V288.001H669.74V315.499H694.947V343.978H669.74V372.848C669.74 380.311 674.469 385.22 681.751 385.22H694.947V413.7H666.195C651.031 413.7 640.788 401.52 640.788 383.058V343.971H628.969V315.491V315.499Z" fill="#D40018"/>
<path d="M721.915 313.535C750.867 313.535 763.271 329.642 763.271 346.93H736.88C736.88 341.822 733.535 338.877 724.077 338.877C714.619 338.877 710.881 341.822 710.881 345.557C710.881 351.256 719.547 352.629 730.182 354.393C746.723 357.147 767.793 360.875 767.993 383.854C767.793 408.015 744.362 415.677 723.485 415.677C702.607 415.677 681.929 407.425 681.929 383.463H708.121C708.121 390.144 714.619 392.89 723.485 392.698C736.088 392.698 738.256 387.589 738.449 384.445C738.449 379.337 731.751 377.764 723.285 376.391C706.352 373.638 681.537 371.674 681.537 345.358C681.537 322.769 699.854 313.535 721.908 313.535H721.915Z" fill="#D40018"/>
</g>
<defs>
<clipPath id="clip0_320_36705">
<rect width="768" height="453" fill="white"/>
</clipPath>
</defs>
</svg>
