<svg width="1132" height="274" viewBox="0 0 1132 274" fill="none" xmlns="http://www.w3.org/2000/svg">
<g clip-path="url(#clip0_384_18717)">
<path d="M0 136.601V1.16333H47.9492C77.5297 1.16333 96.6758 16.0624 96.6758 45.0827C96.6758 74.1029 77.5367 88.2311 47.9492 88.2311H28.418V136.601H0ZM28.425 29.2165V60.171H47.5641C62.0672 60.171 68.4469 54.95 68.4469 44.3048C68.4469 35.6008 62.0672 29.2095 47.5641 29.2095H28.425V29.2165Z" fill="white"/>
<path d="M111.753 39.8617V56.695C112.334 53.7936 119.681 38.8946 138.434 38.3129C141.719 38.1167 146.362 38.3129 151.005 39.0838L146.943 67.1369C142.496 66.5553 137.853 66.1698 133.798 66.1698C120.073 66.1698 111.76 71.0054 111.76 86.4861V136.601H83.5312V39.8617H111.76H111.753Z" fill="white"/>
<path d="M181.159 37.9205C208.618 37.9205 231.042 60.171 231.238 87.6494C231.238 89.5837 231.042 91.5179 230.852 93.4521H159.891C161.635 104.287 169.556 112.023 181.159 112.023C189.668 112.023 196.818 108.344 200.299 101.96L227.176 108.344C219.634 126.341 201.657 138.528 181.159 138.528C154.093 138.528 132.048 116.081 132.048 88.2241C132.048 60.3672 154.086 37.9205 181.159 37.9205ZM161.243 77.2005H201.846C198.562 68.4965 191.02 62.6868 181.159 62.6868C171.299 62.6868 164.338 68.4895 161.243 77.2005Z" fill="white"/>
<path d="M257.338 37.9205C285.763 37.9205 297.941 53.7866 297.941 70.8162H272.03C272.03 65.7844 268.745 62.8831 259.459 62.8831C250.174 62.8831 246.504 65.7844 246.504 69.4636C246.504 75.077 255.013 76.4296 265.454 78.1676C281.694 80.8797 302.381 84.5519 302.577 107.188C302.381 130.987 279.376 138.535 258.878 138.535C238.381 138.535 218.079 130.405 218.079 106.802H243.794C243.794 113.383 250.174 116.088 258.878 115.899C271.252 115.899 273.381 110.867 273.57 107.77C273.57 102.738 266.995 101.189 258.682 99.8364C242.057 97.1243 217.694 95.1901 217.694 69.2674C217.694 47.0169 235.677 37.9205 257.331 37.9205H257.338Z" fill="white"/>
<path d="M338.537 37.9205C365.996 37.9205 388.419 60.171 388.615 87.6494C388.615 89.5837 388.419 91.5179 388.23 93.4521H317.269C319.013 104.287 326.933 112.023 338.537 112.023C347.046 112.023 354.196 108.344 357.676 101.96L384.553 108.344C377.011 126.341 359.035 138.528 338.537 138.528C311.471 138.528 289.425 116.081 289.425 88.2241C289.425 60.3672 311.464 37.9205 338.537 37.9205ZM318.628 77.2005H359.231C355.946 68.4965 348.404 62.6868 338.544 62.6868C328.684 62.6868 321.723 68.4895 318.628 77.2005Z" fill="white"/>
<path d="M406.403 39.8617V53.0158C407.173 50.6961 414.911 37.9205 433.469 37.9205C451.06 37.9205 469.24 49.3365 469.24 77.0042V136.601H441.011V86.2969C441.011 72.7504 436.95 63.8502 423.805 63.8502C409.687 63.8502 406.403 74.2991 406.403 84.7481V136.601H378.174V39.8617H406.403Z" fill="white"/>
<path d="M457.825 39.8617H469.429V12.7686H497.854V39.8547H522.603V67.9078H497.854V96.3534C497.854 103.705 502.497 108.54 509.647 108.54H522.603V136.594H494.374C479.485 136.594 469.429 124.596 469.429 106.41V67.9078H457.825V39.8547V39.8617Z" fill="white"/>
<path d="M534.389 79.1347L572.863 75.6517L572.667 74.1029C572.282 68.104 564.739 65.3989 554.879 64.8173C541.735 64.2356 523.555 67.5294 517.561 70.4307L510.985 47.984C521.23 42.3706 538.632 37.9205 552.939 37.9205C583.682 37.9205 601.274 49.9182 601.274 77.2005V136.601H573.045V124.414C564.922 131.765 554.487 138.535 538.051 138.535C520.264 138.535 506.923 125.766 505.957 110.867C504.794 95.968 515.236 80.6835 534.375 79.1347H534.389ZM544.634 115.513C559.718 115.513 572.478 103.326 573.059 98.2946V94.4262L546.182 98.1054C536.125 99.458 532.26 102.941 532.26 107.202C532.26 111.463 536.51 115.52 544.634 115.52V115.513Z" fill="white"/>
<path d="M589.299 39.8617H600.903V12.7686H629.328V39.8547H654.076V67.9078H629.328V96.3534C629.328 103.705 633.971 108.54 641.121 108.54H654.076V136.594H625.847C610.959 136.594 600.903 124.596 600.903 106.41V67.9078H589.299V39.8547V39.8617Z" fill="white"/>
<path d="M644.013 16.2516C644.209 7.73687 651.744 0.189217 660.253 0C668.95 0.196225 676.304 7.73687 676.493 16.2516C676.297 24.7664 668.95 32.314 660.253 32.5033C651.744 32.307 644.202 24.7664 644.013 16.2516ZM673.593 39.8617V136.608H645.365V39.8617H673.593Z" fill="white"/>
<path d="M715.352 37.9205C743.196 37.9205 766.011 60.3672 766.011 88.2241C766.011 116.081 743.196 138.528 715.352 138.528C687.508 138.528 666.24 116.081 666.24 88.2241C666.24 60.3672 688.279 37.9205 715.352 37.9205ZM715.352 110.482C729.078 110.482 737.972 100.811 737.972 88.2311C737.972 74.6846 729.078 64.2356 715.352 64.2356C702.397 64.2356 694.28 74.6846 694.28 88.2311C694.28 100.811 702.404 110.482 715.352 110.482Z" fill="white"/>
<path d="M784.569 39.8617V53.0158C785.34 50.6961 793.078 37.9205 811.636 37.9205C829.227 37.9205 847.407 49.3365 847.407 77.0042V136.601H819.178V86.2969C819.178 72.7504 815.116 63.8502 801.972 63.8502C787.854 63.8502 784.569 74.2991 784.569 84.7481V136.601H756.34V39.8617H784.569Z" fill="white"/>
<path d="M892.261 79.1347L930.735 75.6517L930.539 74.1029C930.154 68.104 922.612 65.3989 912.751 64.8173C899.607 64.2356 881.427 67.5294 875.433 70.4307L868.857 47.984C879.102 42.3706 896.505 37.9205 910.812 37.9205C941.555 37.9205 959.146 49.9182 959.146 77.2005V136.601H930.917V124.414C922.794 131.765 912.359 138.535 895.923 138.535C878.136 138.535 864.795 125.766 863.829 110.867C862.666 95.968 873.108 80.6835 892.247 79.1347H892.261ZM902.506 115.513C917.59 115.513 930.35 103.326 930.931 98.2946V94.4262L904.054 98.1054C893.997 99.458 890.132 102.941 890.132 107.202C890.132 111.463 894.383 115.52 902.506 115.52V115.513Z" fill="white"/>
<path d="M979.651 39.8617V53.0158C980.421 50.6961 988.159 37.9205 1006.72 37.9205C1024.31 37.9205 1042.49 49.3365 1042.49 77.0042V136.601H1014.26V86.2969C1014.26 72.7504 1010.2 63.8502 997.053 63.8502C982.935 63.8502 979.651 74.2991 979.651 84.7481V136.601H951.422V39.8617H979.651Z" fill="white"/>
<path d="M1103.78 50.8853V1.16333H1132.01V136.601H1103.78V125.57C1099.72 133.307 1089.86 138.535 1077.87 138.535C1052.73 138.535 1032.43 115.899 1032.43 88.2311C1032.43 60.5634 1052.73 37.9275 1077.87 37.9275C1089.86 37.9275 1099.72 42.9592 1103.78 50.8923V50.8853ZM1103.78 88.2311C1103.78 72.5611 1094.11 64.4318 1082.9 64.4318C1069.36 64.4318 1060.66 74.8808 1060.66 88.2311C1060.66 100.614 1069.36 110.285 1082.9 110.285C1094.11 110.285 1103.78 102.738 1103.78 88.2311Z" fill="white"/>
<path d="M98.4126 136.622V164.675H28.425V190.023H88.7485V218.272H28.425V272.059H0V136.622H98.4126Z" fill="white"/>
<path d="M94.775 151.717C94.9711 143.202 102.506 135.654 111.015 135.465C119.713 135.661 127.066 143.202 127.255 151.717C127.059 160.232 119.713 167.779 111.015 167.968C102.506 167.772 94.9641 160.232 94.775 151.717ZM124.356 175.32V272.066H96.1266V175.32H124.356Z" fill="white"/>
<path d="M156.334 175.32V188.474C157.104 186.154 164.842 173.379 183.4 173.379C200.992 173.379 219.171 184.795 219.171 212.462V272.059H190.942V221.755C190.942 208.209 186.881 199.308 173.736 199.308C159.618 199.308 156.334 209.757 156.334 220.206V272.059H128.105V175.313H156.334V175.32Z" fill="white"/>
<path d="M238.863 214.6L277.338 211.117L277.142 209.568C276.756 203.569 269.214 200.864 259.354 200.283C246.21 199.701 228.03 202.995 222.035 205.896L215.46 183.449C225.705 177.836 243.107 173.386 257.414 173.386C288.157 173.386 305.749 185.383 305.749 212.666V272.066H277.52V259.879C269.396 267.23 258.962 274 242.526 274C224.739 274 211.398 261.231 210.431 246.332C209.269 231.433 219.71 216.149 238.849 214.6H238.863ZM249.109 250.972C264.193 250.972 276.953 238.785 277.534 233.753V229.884L250.656 233.564C240.6 234.916 236.735 238.399 236.735 242.66C236.735 246.921 240.985 250.979 249.109 250.979V250.972Z" fill="white"/>
<path d="M333.442 136.425V272.059H305.017V136.425H333.442Z" fill="white"/>
<path d="M456.603 136.622V164.675H386.035V190.023H446.939V218.272H386.035V244.006H456.603V272.059H357.61V136.622H456.603Z" fill="white"/>
<path d="M473.999 175.32V191.957C475.35 188.859 481.345 173.386 505.323 173.386C520.015 173.386 529.301 178.999 534.518 191.957C535.87 186.925 547.089 173.386 569.904 173.386C590.787 173.386 602.965 184.802 602.965 212.469V272.066H574.736V220.599C574.736 206.085 567.39 199.315 556.564 199.315C544.385 199.315 537.614 207.634 537.614 220.213V272.066H509.385V220.599C509.385 206.085 503.201 199.315 492.178 199.315C480.189 199.315 474.006 207.634 474.006 220.213V272.066H445.777V175.32H474.006H473.999Z" fill="white"/>
<path d="M641.818 173.386C669.661 173.386 692.477 195.832 692.477 223.689C692.477 251.546 669.661 273.993 641.818 273.993C613.974 273.993 592.706 251.546 592.706 223.689C592.706 195.832 614.744 173.386 641.818 173.386ZM641.818 245.94C655.543 245.94 664.437 236.269 664.437 223.689C664.437 210.143 655.543 199.694 641.818 199.694C628.862 199.694 620.746 210.143 620.746 223.689C620.746 236.269 628.869 245.94 641.818 245.94Z" fill="white"/>
<path d="M676.622 175.32H688.226V148.234H716.651V175.32H741.4V203.373H716.651V231.819C716.651 239.17 721.294 244.006 728.444 244.006H741.4V272.059H713.171C698.283 272.059 688.226 260.061 688.226 241.875V203.373H676.622V175.32Z" fill="white"/>
<path d="M731.336 151.717C731.533 143.202 739.068 135.654 747.576 135.465C756.274 135.661 763.627 143.202 763.816 151.717C763.62 160.232 756.274 167.779 747.576 167.968C739.068 167.772 731.526 160.232 731.336 151.717ZM760.917 175.32V272.066H732.688V175.32H760.917Z" fill="white"/>
<path d="M802.683 173.386C830.526 173.386 853.342 195.832 853.342 223.689C853.342 251.546 830.526 273.993 802.683 273.993C774.839 273.993 753.571 251.546 753.571 223.689C753.571 195.832 775.609 173.386 802.683 173.386ZM802.683 245.94C816.408 245.94 825.302 236.269 825.302 223.689C825.302 210.143 816.408 199.694 802.683 199.694C789.727 199.694 781.611 210.143 781.611 223.689C781.611 236.269 789.734 245.94 802.683 245.94Z" fill="white"/>
<path d="M871.893 175.32V188.474C872.663 186.154 880.401 173.379 898.959 173.379C916.551 173.379 934.73 184.795 934.73 212.462V272.059H906.501V221.755C906.501 208.209 902.44 199.308 889.295 199.308C875.177 199.308 871.893 209.757 871.893 220.206V272.059H843.664V175.313H871.893V175.32Z" fill="white"/>
</g>
<defs>
<clipPath id="clip0_384_18717">
<rect width="1132" height="274" fill="white"/>
</clipPath>
</defs>
</svg>
