<svg width="611" height="73" viewBox="0 0 611 73" fill="none" xmlns="http://www.w3.org/2000/svg">
<path d="M39.736 49V23.8H50.644C52.9 23.8 54.844 24.172 56.476 24.916C58.108 25.636 59.368 26.68 60.256 28.048C61.144 29.416 61.588 31.048 61.588 32.944C61.588 34.816 61.144 36.436 60.256 37.804C59.368 39.172 58.108 40.228 56.476 40.972C54.844 41.692 52.9 42.052 50.644 42.052H42.976L45.568 39.424V49H39.736ZM45.568 40.072L42.976 37.3H50.32C52.12 37.3 53.464 36.916 54.352 36.148C55.24 35.38 55.684 34.312 55.684 32.944C55.684 31.552 55.24 30.472 54.352 29.704C53.464 28.936 52.12 28.552 50.32 28.552H42.976L45.568 25.78V40.072ZM65.7517 49V23.8H76.6597C78.9157 23.8 80.8597 24.172 82.4917 24.916C84.1237 25.636 85.3837 26.68 86.2717 28.048C87.1597 29.416 87.6037 31.048 87.6037 32.944C87.6037 34.816 87.1597 36.436 86.2717 37.804C85.3837 39.148 84.1237 40.18 82.4917 40.9C80.8597 41.62 78.9157 41.98 76.6597 41.98H68.9917L71.5837 39.424V49H65.7517ZM81.7717 49L75.4717 39.856H81.6997L88.0717 49H81.7717ZM71.5837 40.072L68.9917 37.336H76.3357C78.1357 37.336 79.4797 36.952 80.3677 36.184C81.2557 35.392 81.6997 34.312 81.6997 32.944C81.6997 31.552 81.2557 30.472 80.3677 29.704C79.4797 28.936 78.1357 28.552 76.3357 28.552H68.9917L71.5837 25.78V40.072ZM92.2243 49V23.8H98.0563V49H92.2243ZM104.037 49V23.8H108.861L123.729 41.944H121.389V23.8H127.149V49H122.361L107.457 30.856H109.797V49H104.037ZM138.331 49V28.552H130.267V23.8H152.227V28.552H144.163V49H138.331ZM171.824 49V38.704L173.156 42.232L162.068 23.8H168.26L176.756 37.948H173.192L181.724 23.8H187.448L176.36 42.232L177.656 38.704V49H171.824ZM201.039 49.432C199.047 49.432 197.199 49.108 195.495 48.46C193.815 47.812 192.351 46.9 191.103 45.724C189.879 44.548 188.919 43.168 188.223 41.584C187.551 40 187.215 38.272 187.215 36.4C187.215 34.528 187.551 32.8 188.223 31.216C188.919 29.632 189.891 28.252 191.139 27.076C192.387 25.9 193.851 24.988 195.531 24.34C197.211 23.692 199.035 23.368 201.003 23.368C202.995 23.368 204.819 23.692 206.475 24.34C208.155 24.988 209.607 25.9 210.831 27.076C212.079 28.252 213.051 29.632 213.747 31.216C214.443 32.776 214.791 34.504 214.791 36.4C214.791 38.272 214.443 40.012 213.747 41.62C213.051 43.204 212.079 44.584 210.831 45.76C209.607 46.912 208.155 47.812 206.475 48.46C204.819 49.108 203.007 49.432 201.039 49.432ZM201.003 44.464C202.131 44.464 203.163 44.272 204.099 43.888C205.059 43.504 205.899 42.952 206.619 42.232C207.339 41.512 207.891 40.66 208.275 39.676C208.683 38.692 208.887 37.6 208.887 36.4C208.887 35.2 208.683 34.108 208.275 33.124C207.891 32.14 207.339 31.288 206.619 30.568C205.923 29.848 205.095 29.296 204.135 28.912C203.175 28.528 202.131 28.336 201.003 28.336C199.875 28.336 198.831 28.528 197.871 28.912C196.935 29.296 196.107 29.848 195.387 30.568C194.667 31.288 194.103 32.14 193.695 33.124C193.311 34.108 193.119 35.2 193.119 36.4C193.119 37.576 193.311 38.668 193.695 39.676C194.103 40.66 194.655 41.512 195.351 42.232C196.071 42.952 196.911 43.504 197.871 43.888C198.831 44.272 199.875 44.464 201.003 44.464ZM230.37 49.432C226.794 49.432 223.998 48.436 221.982 46.444C219.966 44.452 218.958 41.608 218.958 37.912V23.8H224.79V37.696C224.79 40.096 225.282 41.824 226.266 42.88C227.25 43.936 228.63 44.464 230.406 44.464C232.182 44.464 233.562 43.936 234.546 42.88C235.53 41.824 236.022 40.096 236.022 37.696V23.8H241.782V37.912C241.782 41.608 240.774 44.452 238.758 46.444C236.742 48.436 233.946 49.432 230.37 49.432ZM247.545 49V23.8H258.453C260.709 23.8 262.653 24.172 264.285 24.916C265.917 25.636 267.177 26.68 268.065 28.048C268.953 29.416 269.397 31.048 269.397 32.944C269.397 34.816 268.953 36.436 268.065 37.804C267.177 39.148 265.917 40.18 264.285 40.9C262.653 41.62 260.709 41.98 258.453 41.98H250.785L253.377 39.424V49H247.545ZM263.565 49L257.265 39.856H263.493L269.865 49H263.565ZM253.377 40.072L250.785 37.336H258.129C259.929 37.336 261.273 36.952 262.161 36.184C263.049 35.392 263.493 34.312 263.493 32.944C263.493 31.552 263.049 30.472 262.161 29.704C261.273 28.936 259.929 28.552 258.129 28.552H250.785L253.377 25.78V40.072ZM289.433 43.24L289.109 36.508L301.169 23.8H307.649L296.777 35.5L293.537 38.956L289.433 43.24ZM284.213 49V23.8H290.009V49H284.213ZM301.457 49L292.493 38.02L296.309 33.88L308.261 49H301.457ZM310.861 49V23.8H316.693V49H310.861ZM330.954 49.432C328.938 49.432 327.006 49.168 325.158 48.64C323.31 48.088 321.822 47.38 320.694 46.516L322.674 42.124C323.754 42.892 325.026 43.528 326.49 44.032C327.978 44.512 329.478 44.752 330.99 44.752C332.142 44.752 333.066 44.644 333.762 44.428C334.482 44.188 335.01 43.864 335.346 43.456C335.682 43.048 335.85 42.58 335.85 42.052C335.85 41.38 335.586 40.852 335.058 40.468C334.53 40.06 333.834 39.736 332.97 39.496C332.106 39.232 331.146 38.992 330.09 38.776C329.058 38.536 328.014 38.248 326.958 37.912C325.926 37.576 324.978 37.144 324.114 36.616C323.25 36.088 322.542 35.392 321.99 34.528C321.462 33.664 321.198 32.56 321.198 31.216C321.198 29.776 321.582 28.468 322.35 27.292C323.142 26.092 324.318 25.144 325.878 24.448C327.462 23.728 329.442 23.368 331.818 23.368C333.402 23.368 334.962 23.56 336.498 23.944C338.034 24.304 339.39 24.856 340.566 25.6L338.766 30.028C337.59 29.356 336.414 28.864 335.238 28.552C334.062 28.216 332.91 28.048 331.782 28.048C330.654 28.048 329.73 28.18 329.01 28.444C328.29 28.708 327.774 29.056 327.462 29.488C327.15 29.896 326.994 30.376 326.994 30.928C326.994 31.576 327.258 32.104 327.786 32.512C328.314 32.896 329.01 33.208 329.874 33.448C330.738 33.688 331.686 33.928 332.718 34.168C333.774 34.408 334.818 34.684 335.85 34.996C336.906 35.308 337.866 35.728 338.73 36.256C339.594 36.784 340.29 37.48 340.818 38.344C341.37 39.208 341.646 40.3 341.646 41.62C341.646 43.036 341.25 44.332 340.458 45.508C339.666 46.684 338.478 47.632 336.894 48.352C335.334 49.072 333.354 49.432 330.954 49.432ZM353.911 49.432C351.895 49.432 349.963 49.168 348.115 48.64C346.267 48.088 344.779 47.38 343.651 46.516L345.631 42.124C346.711 42.892 347.983 43.528 349.447 44.032C350.935 44.512 352.435 44.752 353.947 44.752C355.099 44.752 356.023 44.644 356.719 44.428C357.439 44.188 357.967 43.864 358.303 43.456C358.639 43.048 358.807 42.58 358.807 42.052C358.807 41.38 358.543 40.852 358.015 40.468C357.487 40.06 356.791 39.736 355.927 39.496C355.063 39.232 354.103 38.992 353.047 38.776C352.015 38.536 350.971 38.248 349.915 37.912C348.883 37.576 347.935 37.144 347.071 36.616C346.207 36.088 345.499 35.392 344.947 34.528C344.419 33.664 344.155 32.56 344.155 31.216C344.155 29.776 344.539 28.468 345.307 27.292C346.099 26.092 347.275 25.144 348.835 24.448C350.419 23.728 352.399 23.368 354.775 23.368C356.359 23.368 357.919 23.56 359.455 23.944C360.991 24.304 362.347 24.856 363.523 25.6L361.723 30.028C360.547 29.356 359.371 28.864 358.195 28.552C357.019 28.216 355.867 28.048 354.739 28.048C353.611 28.048 352.687 28.18 351.967 28.444C351.247 28.708 350.731 29.056 350.419 29.488C350.107 29.896 349.951 30.376 349.951 30.928C349.951 31.576 350.215 32.104 350.743 32.512C351.271 32.896 351.967 33.208 352.831 33.448C353.695 33.688 354.643 33.928 355.675 34.168C356.731 34.408 357.775 34.684 358.807 34.996C359.863 35.308 360.823 35.728 361.687 36.256C362.551 36.784 363.247 37.48 363.775 38.344C364.327 39.208 364.603 40.3 364.603 41.62C364.603 43.036 364.207 44.332 363.415 45.508C362.623 46.684 361.435 47.632 359.851 48.352C358.291 49.072 356.311 49.432 353.911 49.432ZM380.828 49.432C378.836 49.432 376.988 49.108 375.284 48.46C373.604 47.812 372.14 46.9 370.892 45.724C369.668 44.548 368.708 43.168 368.012 41.584C367.34 40 367.004 38.272 367.004 36.4C367.004 34.528 367.34 32.8 368.012 31.216C368.708 29.632 369.68 28.252 370.928 27.076C372.176 25.9 373.64 24.988 375.32 24.34C377 23.692 378.824 23.368 380.792 23.368C382.784 23.368 384.608 23.692 386.264 24.34C387.944 24.988 389.396 25.9 390.62 27.076C391.868 28.252 392.84 29.632 393.536 31.216C394.232 32.776 394.58 34.504 394.58 36.4C394.58 38.272 394.232 40.012 393.536 41.62C392.84 43.204 391.868 44.584 390.62 45.76C389.396 46.912 387.944 47.812 386.264 48.46C384.608 49.108 382.796 49.432 380.828 49.432ZM380.792 44.464C381.92 44.464 382.952 44.272 383.888 43.888C384.848 43.504 385.688 42.952 386.408 42.232C387.128 41.512 387.68 40.66 388.064 39.676C388.472 38.692 388.676 37.6 388.676 36.4C388.676 35.2 388.472 34.108 388.064 33.124C387.68 32.14 387.128 31.288 386.408 30.568C385.712 29.848 384.884 29.296 383.924 28.912C382.964 28.528 381.92 28.336 380.792 28.336C379.664 28.336 378.62 28.528 377.66 28.912C376.724 29.296 375.896 29.848 375.176 30.568C374.456 31.288 373.892 32.14 373.484 33.124C373.1 34.108 372.908 35.2 372.908 36.4C372.908 37.576 373.1 38.668 373.484 39.676C373.892 40.66 374.444 41.512 375.14 42.232C375.86 42.952 376.7 43.504 377.66 43.888C378.62 44.272 379.664 44.464 380.792 44.464ZM398.963 49V23.8H403.787L418.655 41.944H416.315V23.8H422.075V49H417.287L402.383 30.856H404.723V49H398.963ZM438.232 49V23.8H449.14C451.396 23.8 453.34 24.172 454.972 24.916C456.604 25.636 457.864 26.68 458.752 28.048C459.64 29.416 460.084 31.048 460.084 32.944C460.084 34.816 459.64 36.436 458.752 37.804C457.864 39.148 456.604 40.18 454.972 40.9C453.34 41.62 451.396 41.98 449.14 41.98H441.472L444.064 39.424V49H438.232ZM454.252 49L447.952 39.856H454.18L460.552 49H454.252ZM444.064 40.072L441.472 37.336H448.816C450.616 37.336 451.96 36.952 452.848 36.184C453.736 35.392 454.18 34.312 454.18 32.944C454.18 31.552 453.736 30.472 452.848 29.704C451.96 28.936 450.616 28.552 448.816 28.552H441.472L444.064 25.78V40.072ZM470.069 33.952H482.201V38.488H470.069V33.952ZM470.501 44.32H484.217V49H464.705V23.8H483.749V28.48H470.501V44.32ZM500.917 49.432C498.973 49.432 497.161 49.12 495.481 48.496C493.825 47.848 492.385 46.936 491.161 45.76C489.937 44.584 488.977 43.204 488.281 41.62C487.609 40.036 487.273 38.296 487.273 36.4C487.273 34.504 487.609 32.764 488.281 31.18C488.977 29.596 489.937 28.216 491.161 27.04C492.409 25.864 493.861 24.964 495.517 24.34C497.173 23.692 498.985 23.368 500.953 23.368C503.137 23.368 505.105 23.752 506.857 24.52C508.633 25.264 510.121 26.368 511.321 27.832L507.577 31.288C506.713 30.304 505.753 29.572 504.697 29.092C503.641 28.588 502.489 28.336 501.241 28.336C500.065 28.336 498.985 28.528 498.001 28.912C497.017 29.296 496.165 29.848 495.445 30.568C494.725 31.288 494.161 32.14 493.753 33.124C493.369 34.108 493.177 35.2 493.177 36.4C493.177 37.6 493.369 38.692 493.753 39.676C494.161 40.66 494.725 41.512 495.445 42.232C496.165 42.952 497.017 43.504 498.001 43.888C498.985 44.272 500.065 44.464 501.241 44.464C502.489 44.464 503.641 44.224 504.697 43.744C505.753 43.24 506.713 42.484 507.577 41.476L511.321 44.932C510.121 46.396 508.633 47.512 506.857 48.28C505.105 49.048 503.125 49.432 500.917 49.432ZM515.259 49V23.8H521.091V49H515.259ZM527.072 49V23.8H537.98C540.236 23.8 542.18 24.172 543.812 24.916C545.444 25.636 546.704 26.68 547.592 28.048C548.48 29.416 548.924 31.048 548.924 32.944C548.924 34.816 548.48 36.436 547.592 37.804C546.704 39.172 545.444 40.228 543.812 40.972C542.18 41.692 540.236 42.052 537.98 42.052H530.312L532.904 39.424V49H527.072ZM532.904 40.072L530.312 37.3H537.656C539.456 37.3 540.8 36.916 541.688 36.148C542.576 35.38 543.02 34.312 543.02 32.944C543.02 31.552 542.576 30.472 541.688 29.704C540.8 28.936 539.456 28.552 537.656 28.552H530.312L532.904 25.78V40.072ZM558.452 33.952H570.584V38.488H558.452V33.952ZM558.884 44.32H572.6V49H553.088V23.8H572.132V28.48H558.884V44.32Z" fill="white"/>
</svg>
