<svg width="1463" height="32" viewBox="0 0 1463 32" fill="none" xmlns="http://www.w3.org/2000/svg">
<rect width="288.941" height="31.1196" fill="#DBA409"/>
<rect x="588.444" width="288.941" height="31.1196" fill="#DBA409"/>
<rect x="294.222" width="288.941" height="31.1196" fill="#DBA409"/>
<rect x="881.723" width="288.941" height="31.1196" fill="#D9D9D9"/>
<rect x="1174.06" width="288.941" height="31.1196" fill="#D9D9D9"/>
<path d="M23.3471 23.6011V8.24107L25.0271 9.92107H19.9871V6.80107H27.2351V23.6011H23.3471Z" fill="white"/>
<path d="M598.571 23.8891C597.403 23.8891 596.243 23.7371 595.091 23.4331C593.939 23.1131 592.963 22.6651 592.163 22.0891L593.675 19.1131C594.315 19.5771 595.059 19.9451 595.907 20.2171C596.755 20.4891 597.611 20.6251 598.475 20.6251C599.451 20.6251 600.219 20.4331 600.779 20.0491C601.339 19.6651 601.619 19.1371 601.619 18.4651C601.619 17.8251 601.371 17.3211 600.875 16.9531C600.379 16.5851 599.579 16.4011 598.475 16.4011H596.699V13.8331L601.379 8.52907L601.811 9.92107H593.003V6.80107H604.763V9.32107L600.107 14.6251L598.139 13.4971H599.267C601.331 13.4971 602.891 13.9611 603.947 14.8891C605.003 15.8171 605.531 17.0091 605.531 18.4651C605.531 19.4091 605.283 20.2971 604.787 21.1291C604.291 21.9451 603.531 22.6091 602.507 23.1211C601.483 23.6331 600.171 23.8891 598.571 23.8891Z" fill="white"/>
<path d="M306.325 23.6011V21.0811L312.805 14.9611C313.317 14.4971 313.693 14.0811 313.933 13.7131C314.173 13.3451 314.333 13.0091 314.413 12.7051C314.509 12.4011 314.557 12.1211 314.557 11.8651C314.557 11.1931 314.325 10.6811 313.861 10.3291C313.413 9.96107 312.749 9.77707 311.869 9.77707C311.165 9.77707 310.509 9.91307 309.901 10.1851C309.309 10.4571 308.805 10.8811 308.389 11.4571L305.557 9.63307C306.197 8.67307 307.093 7.91307 308.245 7.35307C309.397 6.79307 310.725 6.51307 312.229 6.51307C313.477 6.51307 314.565 6.72107 315.493 7.13707C316.437 7.53707 317.165 8.10507 317.677 8.84107C318.205 9.57707 318.469 10.4571 318.469 11.4811C318.469 12.0251 318.397 12.5691 318.253 13.1131C318.125 13.6411 317.853 14.2011 317.437 14.7931C317.037 15.3851 316.445 16.0491 315.661 16.7851L310.285 21.8491L309.541 20.4331H319.021V23.6011H306.325Z" fill="white"/>
<path d="M885.038 20.0731V17.4571L892.958 6.80107H897.038L889.286 17.4571L887.39 16.9051H900.614V20.0731H885.038ZM894.086 23.6011V20.0731L894.206 16.9051V13.7611H897.878V23.6011H894.086Z" fill="#DBA409"/>
<path d="M1182.53 23.8891C1181.36 23.8891 1180.2 23.7371 1179.05 23.4331C1177.91 23.1131 1176.94 22.6651 1176.12 22.0891L1177.66 19.1131C1178.3 19.5771 1179.03 19.9451 1179.86 20.2171C1180.71 20.4891 1181.57 20.6251 1182.43 20.6251C1183.41 20.6251 1184.18 20.4331 1184.74 20.0491C1185.3 19.6651 1185.58 19.1291 1185.58 18.4411C1185.58 18.0091 1185.46 17.6251 1185.24 17.2891C1185.02 16.9531 1184.62 16.6971 1184.04 16.5211C1183.48 16.3451 1182.69 16.2571 1181.66 16.2571H1177.37L1178.23 6.80107H1188.48V9.92107H1179.62L1181.64 8.14507L1181.04 14.8891L1179.02 13.1131H1182.58C1184.24 13.1131 1185.58 13.3451 1186.58 13.8091C1187.61 14.2571 1188.35 14.8731 1188.82 15.6571C1189.28 16.4411 1189.51 17.3291 1189.51 18.3211C1189.51 19.3131 1189.26 20.2331 1188.77 21.0811C1188.27 21.9131 1187.5 22.5931 1186.46 23.1211C1185.44 23.6331 1184.13 23.8891 1182.53 23.8891Z" fill="#DBA409"/>
</svg>
