<svg width="1463" height="32" viewBox="0 0 1463 32" fill="none" xmlns="http://www.w3.org/2000/svg">
<rect width="288.941" height="31.1196" fill="#D40018"/>
<rect x="588.444" width="288.941" height="31.1196" fill="#D9D9D9"/>
<rect x="294.222" width="288.941" height="31.1196" fill="#D9D9D9"/>
<rect x="881.723" width="288.941" height="31.1196" fill="#D9D9D9"/>
<rect x="1174.06" width="288.941" height="31.1196" fill="#D9D9D9"/>
<path d="M23.3476 23.6016V8.24156L25.0276 9.92156H19.9876V6.80156H27.2356V23.6016H23.3476Z" fill="white"/>
<path d="M598.572 23.8896C597.404 23.8896 596.244 23.7376 595.092 23.4336C593.94 23.1136 592.964 22.6656 592.164 22.0896L593.676 19.1136C594.316 19.5776 595.06 19.9456 595.908 20.2176C596.756 20.4896 597.612 20.6256 598.476 20.6256C599.452 20.6256 600.22 20.4336 600.78 20.0496C601.34 19.6656 601.62 19.1376 601.62 18.4656C601.62 17.8256 601.372 17.3216 600.876 16.9536C600.38 16.5856 599.58 16.4016 598.476 16.4016H596.7V13.8336L601.38 8.52956L601.812 9.92156H593.004V6.80156H604.764V9.32156L600.108 14.6256L598.14 13.4976H599.268C601.332 13.4976 602.892 13.9616 603.948 14.8896C605.004 15.8176 605.532 17.0096 605.532 18.4656C605.532 19.4096 605.284 20.2976 604.788 21.1296C604.292 21.9456 603.532 22.6096 602.508 23.1216C601.484 23.6336 600.172 23.8896 598.572 23.8896Z" fill="#D40018"/>
<path d="M306.326 23.6016V21.0816L312.806 14.9616C313.318 14.4976 313.694 14.0816 313.934 13.7136C314.174 13.3456 314.334 13.0096 314.414 12.7056C314.51 12.4016 314.558 12.1216 314.558 11.8656C314.558 11.1936 314.326 10.6816 313.862 10.3296C313.414 9.96156 312.75 9.77756 311.87 9.77756C311.166 9.77756 310.51 9.91356 309.902 10.1856C309.31 10.4576 308.806 10.8816 308.39 11.4576L305.558 9.63356C306.198 8.67356 307.094 7.91356 308.246 7.35356C309.398 6.79356 310.726 6.51356 312.23 6.51356C313.478 6.51356 314.566 6.72156 315.494 7.13756C316.438 7.53756 317.166 8.10556 317.678 8.84156C318.206 9.57756 318.47 10.4576 318.47 11.4816C318.47 12.0256 318.398 12.5696 318.254 13.1136C318.126 13.6416 317.854 14.2016 317.438 14.7936C317.038 15.3856 316.446 16.0496 315.662 16.7856L310.286 21.8496L309.542 20.4336H319.022V23.6016H306.326Z" fill="#D40018"/>
<path d="M885.039 20.0736V17.4576L892.959 6.80156H897.039L889.287 17.4576L887.391 16.9056H900.615V20.0736H885.039ZM894.087 23.6016V20.0736L894.207 16.9056V13.7616H897.879V23.6016H894.087Z" fill="#D40018"/>
<path d="M1182.53 23.8896C1181.36 23.8896 1180.2 23.7376 1179.05 23.4336C1177.91 23.1136 1176.94 22.6656 1176.12 22.0896L1177.66 19.1136C1178.3 19.5776 1179.03 19.9456 1179.87 20.2176C1180.71 20.4896 1181.57 20.6256 1182.43 20.6256C1183.41 20.6256 1184.18 20.4336 1184.74 20.0496C1185.3 19.6656 1185.58 19.1296 1185.58 18.4416C1185.58 18.0096 1185.47 17.6256 1185.24 17.2896C1185.02 16.9536 1184.62 16.6976 1184.04 16.5216C1183.48 16.3456 1182.69 16.2576 1181.67 16.2576H1177.37L1178.23 6.80156H1188.48V9.92156H1179.63L1181.64 8.14556L1181.04 14.8896L1179.03 13.1136H1182.58C1184.24 13.1136 1185.58 13.3456 1186.59 13.8096C1187.61 14.2576 1188.35 14.8736 1188.82 15.6576C1189.28 16.4416 1189.51 17.3296 1189.51 18.3216C1189.51 19.3136 1189.27 20.2336 1188.77 21.0816C1188.27 21.9136 1187.51 22.5936 1186.47 23.1216C1185.44 23.6336 1184.13 23.8896 1182.53 23.8896Z" fill="#D40018"/>
</svg>
