<svg width="222" height="71" viewBox="0 0 222 71" fill="none" xmlns="http://www.w3.org/2000/svg">
<path d="M50.1735 53.288C47.6775 53.288 45.2775 52.888 42.9735 52.088C40.7015 51.256 38.9415 50.2 37.6935 48.92L39.0855 46.184C40.2695 47.336 41.8535 48.312 43.8375 49.112C45.8535 49.88 47.9655 50.264 50.1735 50.264C52.2855 50.264 53.9975 50.008 55.3095 49.496C56.6535 48.952 57.6295 48.232 58.2375 47.336C58.8775 46.44 59.1975 45.448 59.1975 44.36C59.1975 43.048 58.8135 41.992 58.0455 41.192C57.3095 40.392 56.3335 39.768 55.1175 39.32C53.9015 38.84 52.5575 38.424 51.0855 38.072C49.6135 37.72 48.1415 37.352 46.6695 36.968C45.1975 36.552 43.8375 36.008 42.5895 35.336C41.3735 34.664 40.3815 33.784 39.6135 32.696C38.8775 31.576 38.5095 30.12 38.5095 28.328C38.5095 26.664 38.9415 25.144 39.8055 23.768C40.7015 22.36 42.0615 21.24 43.8855 20.408C45.7095 19.544 48.0455 19.112 50.8935 19.112C52.7815 19.112 54.6535 19.384 56.5095 19.928C58.3655 20.44 59.9655 21.16 61.3095 22.088L60.1095 24.92C58.6695 23.96 57.1335 23.256 55.5015 22.808C53.9015 22.36 52.3495 22.136 50.8455 22.136C48.8295 22.136 47.1655 22.408 45.8535 22.952C44.5415 23.496 43.5655 24.232 42.9255 25.16C42.3175 26.056 42.0135 27.08 42.0135 28.232C42.0135 29.544 42.3815 30.6 43.1175 31.4C43.8855 32.2 44.8775 32.824 46.0935 33.272C47.3415 33.72 48.7015 34.12 50.1735 34.472C51.6455 34.824 53.1015 35.208 54.5415 35.624C56.0135 36.04 57.3575 36.584 58.5735 37.256C59.8215 37.896 60.8135 38.76 61.5495 39.848C62.3175 40.936 62.7015 42.36 62.7015 44.12C62.7015 45.752 62.2535 47.272 61.3575 48.68C60.4615 50.056 59.0855 51.176 57.2295 52.04C55.4055 52.872 53.0535 53.288 50.1735 53.288ZM76.5 53V22.472H64.692V19.4H91.86V22.472H80.052V53H76.5ZM90.471 53L105.831 19.4H109.335L124.695 53H120.951L106.839 21.464H108.279L94.167 53H90.471ZM96.519 44.024L97.575 41.144H117.111L118.167 44.024H96.519ZM130.253 53V19.4H142.829C145.677 19.4 148.125 19.864 150.173 20.792C152.221 21.688 153.789 23 154.877 24.728C155.997 26.424 156.557 28.488 156.557 30.92C156.557 33.288 155.997 35.336 154.877 37.064C153.789 38.76 152.221 40.072 150.173 41C148.125 41.896 145.677 42.344 142.829 42.344H132.221L133.805 40.712V53H130.253ZM153.197 53L144.557 40.808H148.397L157.085 53H153.197ZM133.805 41L132.221 39.32H142.733C146.093 39.32 148.637 38.584 150.365 37.112C152.125 35.64 153.005 33.576 153.005 30.92C153.005 28.232 152.125 26.152 150.365 24.68C148.637 23.208 146.093 22.472 142.733 22.472H132.221L133.805 20.792V41ZM171 53V22.472H159.192V19.4H186.36V22.472H174.552V53H171Z" fill="white"/>
</svg>
