<svg width="1398" height="90" viewBox="0 0 1398 90" fill="none" xmlns="http://www.w3.org/2000/svg">
<path d="M141.17 82V59.6H150.034C152.402 59.6 154.482 60.08 156.274 61.04C158.066 62 159.452 63.3227 160.434 65.008C161.436 66.6933 161.938 68.624 161.938 70.8C161.938 72.976 161.436 74.9067 160.434 76.592C159.452 78.2773 158.066 79.6 156.274 80.56C154.482 81.52 152.402 82 150.034 82H141.17ZM142.802 80.528H149.906C152.018 80.528 153.852 80.112 155.41 79.28C156.967 78.448 158.172 77.3067 159.026 75.856C159.879 74.384 160.306 72.6987 160.306 70.8C160.306 68.9013 159.879 67.2267 159.026 65.776C158.172 64.304 156.967 63.152 155.41 62.32C153.852 61.488 152.018 61.072 149.906 61.072H142.802V80.528ZM167.095 82V65.296H168.695V82H167.095ZM167.895 61.232C167.532 61.232 167.223 61.104 166.967 60.848C166.711 60.592 166.583 60.2933 166.583 59.952C166.583 59.5893 166.711 59.28 166.967 59.024C167.223 58.768 167.532 58.64 167.895 58.64C168.279 58.64 168.588 58.768 168.823 59.024C169.079 59.2587 169.207 59.5573 169.207 59.92C169.207 60.2827 169.079 60.592 168.823 60.848C168.588 61.104 168.279 61.232 167.895 61.232ZM179.663 82.128C178.276 82.128 176.975 81.9253 175.759 81.52C174.564 81.1147 173.636 80.6027 172.975 79.984L173.711 78.704C174.351 79.2587 175.204 79.7387 176.271 80.144C177.338 80.528 178.49 80.72 179.727 80.72C181.476 80.72 182.735 80.432 183.503 79.856C184.271 79.28 184.655 78.5227 184.655 77.584C184.655 76.9013 184.452 76.368 184.047 75.984C183.663 75.5787 183.14 75.2693 182.479 75.056C181.818 74.8427 181.092 74.672 180.303 74.544C179.514 74.3947 178.724 74.2347 177.935 74.064C177.146 73.8933 176.42 73.648 175.759 73.328C175.098 73.008 174.564 72.5707 174.159 72.016C173.775 71.44 173.583 70.6827 173.583 69.744C173.583 68.8907 173.818 68.1227 174.287 67.44C174.756 66.7573 175.46 66.2133 176.399 65.808C177.338 65.3813 178.511 65.168 179.919 65.168C180.964 65.168 182.01 65.3173 183.055 65.616C184.122 65.9147 184.986 66.3093 185.647 66.8L184.911 68.08C184.207 67.5467 183.418 67.1627 182.543 66.928C181.668 66.6933 180.783 66.576 179.887 66.576C178.266 66.576 177.071 66.8747 176.303 67.472C175.556 68.0693 175.183 68.816 175.183 69.712C175.183 70.416 175.375 70.9813 175.759 71.408C176.164 71.8133 176.698 72.1333 177.359 72.368C178.02 72.5813 178.746 72.7627 179.535 72.912C180.324 73.04 181.114 73.1893 181.903 73.36C182.692 73.5307 183.418 73.776 184.079 74.096C184.74 74.3947 185.263 74.8213 185.647 75.376C186.052 75.9093 186.255 76.6347 186.255 77.552C186.255 78.4693 185.999 79.2693 185.487 79.952C184.996 80.6347 184.26 81.168 183.279 81.552C182.298 81.936 181.092 82.128 179.663 82.128ZM195.584 82.128C194.112 82.128 192.981 81.7227 192.192 80.912C191.424 80.1013 191.04 78.992 191.04 77.584V61.648H192.64V77.424C192.64 78.4907 192.907 79.312 193.44 79.888C193.973 80.464 194.741 80.752 195.744 80.752C196.789 80.752 197.653 80.4427 198.336 79.824L199.008 80.944C198.581 81.3493 198.059 81.648 197.44 81.84C196.843 82.032 196.224 82.128 195.584 82.128ZM187.968 66.672V65.296H197.952V66.672H187.968ZM213.998 82V78.192L213.934 77.616V71.344C213.934 69.7867 213.507 68.6027 212.654 67.792C211.822 66.9813 210.595 66.576 208.974 66.576C207.822 66.576 206.745 66.7787 205.742 67.184C204.761 67.568 203.918 68.0693 203.214 68.688L202.414 67.536C203.246 66.7893 204.249 66.2133 205.422 65.808C206.595 65.3813 207.822 65.168 209.102 65.168C211.171 65.168 212.761 65.6907 213.87 66.736C214.979 67.7813 215.534 69.3387 215.534 71.408V82H213.998ZM207.982 82.128C206.745 82.128 205.667 81.936 204.75 81.552C203.854 81.1467 203.161 80.5813 202.67 79.856C202.201 79.1307 201.966 78.2987 201.966 77.36C201.966 76.5067 202.158 75.7387 202.542 75.056C202.947 74.352 203.609 73.7867 204.526 73.36C205.443 72.912 206.67 72.688 208.206 72.688H214.35V73.936H208.238C206.51 73.936 205.294 74.256 204.59 74.896C203.907 75.536 203.566 76.336 203.566 77.296C203.566 78.3627 203.971 79.216 204.782 79.856C205.593 80.496 206.734 80.816 208.206 80.816C209.614 80.816 210.798 80.496 211.758 79.856C212.739 79.216 213.465 78.288 213.934 77.072L214.382 78.16C213.934 79.376 213.166 80.3467 212.078 81.072C211.011 81.776 209.646 82.128 207.982 82.128ZM230.286 65.168C231.652 65.168 232.836 65.4347 233.838 65.968C234.862 66.48 235.652 67.2693 236.206 68.336C236.782 69.3813 237.07 70.6827 237.07 72.24V82H235.47V72.368C235.47 70.4907 234.99 69.0613 234.03 68.08C233.092 67.0987 231.769 66.608 230.062 66.608C228.761 66.608 227.63 66.8747 226.67 67.408C225.71 67.9413 224.974 68.688 224.462 69.648C223.972 70.608 223.726 71.76 223.726 73.104V82H222.126V65.296H223.662V69.936L223.438 69.424C223.95 68.1013 224.793 67.0667 225.966 66.32C227.14 65.552 228.58 65.168 230.286 65.168ZM248.522 82.128C247.05 82.128 245.919 81.7227 245.13 80.912C244.362 80.1013 243.978 78.992 243.978 77.584V61.648H245.578V77.424C245.578 78.4907 245.844 79.312 246.378 79.888C246.911 80.464 247.679 80.752 248.682 80.752C249.727 80.752 250.591 80.4427 251.274 79.824L251.946 80.944C251.519 81.3493 250.996 81.648 250.378 81.84C249.78 82.032 249.162 82.128 248.522 82.128ZM240.906 66.672V65.296H250.89V66.672H240.906ZM265.138 82V59.6H273.17C275.048 59.6 276.658 59.8987 278.002 60.496C279.346 61.0933 280.381 61.9573 281.106 63.088C281.832 64.1973 282.194 65.552 282.194 67.152C282.194 68.7093 281.832 70.0533 281.106 71.184C280.381 72.3147 279.346 73.1787 278.002 73.776C276.658 74.3733 275.048 74.672 273.17 74.672H266.034L266.77 73.904V82H265.138ZM266.77 74L266.034 73.2H273.17C275.581 73.2 277.405 72.6773 278.642 71.632C279.901 70.5653 280.53 69.072 280.53 67.152C280.53 65.2107 279.901 63.7173 278.642 62.672C277.405 61.6053 275.581 61.072 273.17 61.072H266.034L266.77 60.272V74ZM297.561 82V78.192L297.497 77.616V71.344C297.497 69.7867 297.07 68.6027 296.217 67.792C295.385 66.9813 294.158 66.576 292.537 66.576C291.385 66.576 290.307 66.7787 289.305 67.184C288.323 67.568 287.481 68.0693 286.777 68.688L285.977 67.536C286.809 66.7893 287.811 66.2133 288.985 65.808C290.158 65.3813 291.385 65.168 292.665 65.168C294.734 65.168 296.323 65.6907 297.433 66.736C298.542 67.7813 299.097 69.3387 299.097 71.408V82H297.561ZM291.545 82.128C290.307 82.128 289.23 81.936 288.313 81.552C287.417 81.1467 286.723 80.5813 286.233 79.856C285.763 79.1307 285.529 78.2987 285.529 77.36C285.529 76.5067 285.721 75.7387 286.105 75.056C286.51 74.352 287.171 73.7867 288.089 73.36C289.006 72.912 290.233 72.688 291.769 72.688H297.913V73.936H291.801C290.073 73.936 288.857 74.256 288.153 74.896C287.47 75.536 287.129 76.336 287.129 77.296C287.129 78.3627 287.534 79.216 288.345 79.856C289.155 80.496 290.297 80.816 291.769 80.816C293.177 80.816 294.361 80.496 295.321 79.856C296.302 79.216 297.027 78.288 297.497 77.072L297.945 78.16C297.497 79.376 296.729 80.3467 295.641 81.072C294.574 81.776 293.209 82.128 291.545 82.128ZM309.913 82.128C308.526 82.128 307.225 81.9253 306.009 81.52C304.814 81.1147 303.886 80.6027 303.225 79.984L303.961 78.704C304.601 79.2587 305.454 79.7387 306.521 80.144C307.588 80.528 308.74 80.72 309.977 80.72C311.726 80.72 312.985 80.432 313.753 79.856C314.521 79.28 314.905 78.5227 314.905 77.584C314.905 76.9013 314.702 76.368 314.297 75.984C313.913 75.5787 313.39 75.2693 312.729 75.056C312.068 74.8427 311.342 74.672 310.553 74.544C309.764 74.3947 308.974 74.2347 308.185 74.064C307.396 73.8933 306.67 73.648 306.009 73.328C305.348 73.008 304.814 72.5707 304.409 72.016C304.025 71.44 303.833 70.6827 303.833 69.744C303.833 68.8907 304.068 68.1227 304.537 67.44C305.006 66.7573 305.71 66.2133 306.649 65.808C307.588 65.3813 308.761 65.168 310.169 65.168C311.214 65.168 312.26 65.3173 313.305 65.616C314.372 65.9147 315.236 66.3093 315.897 66.8L315.161 68.08C314.457 67.5467 313.668 67.1627 312.793 66.928C311.918 66.6933 311.033 66.576 310.137 66.576C308.516 66.576 307.321 66.8747 306.553 67.472C305.806 68.0693 305.433 68.816 305.433 69.712C305.433 70.416 305.625 70.9813 306.009 71.408C306.414 71.8133 306.948 72.1333 307.609 72.368C308.27 72.5813 308.996 72.7627 309.785 72.912C310.574 73.04 311.364 73.1893 312.153 73.36C312.942 73.5307 313.668 73.776 314.329 74.096C314.99 74.3947 315.513 74.8213 315.897 75.376C316.302 75.9093 316.505 76.6347 316.505 77.552C316.505 78.4693 316.249 79.2693 315.737 79.952C315.246 80.6347 314.51 81.168 313.529 81.552C312.548 81.936 311.342 82.128 309.913 82.128ZM325.834 82.128C324.362 82.128 323.231 81.7227 322.442 80.912C321.674 80.1013 321.29 78.992 321.29 77.584V61.648H322.89V77.424C322.89 78.4907 323.157 79.312 323.69 79.888C324.223 80.464 324.991 80.752 325.994 80.752C327.039 80.752 327.903 80.4427 328.586 79.824L329.258 80.944C328.831 81.3493 328.309 81.648 327.69 81.84C327.093 82.032 326.474 82.128 325.834 82.128ZM318.218 66.672V65.296H328.202V66.672H318.218ZM383.545 82V59.6H391.577C393.454 59.6 395.065 59.8987 396.409 60.496C397.753 61.0933 398.787 61.9573 399.513 63.088C400.238 64.1973 400.601 65.552 400.601 67.152C400.601 68.7093 400.238 70.0533 399.513 71.184C398.787 72.2933 397.753 73.1573 396.409 73.776C395.065 74.3733 393.454 74.672 391.577 74.672H384.441L385.177 73.904V82H383.545ZM399.097 82L393.273 73.872H395.129L400.953 82H399.097ZM385.177 74L384.441 73.232H391.577C393.987 73.232 395.811 72.6987 397.049 71.632C398.307 70.5653 398.937 69.072 398.937 67.152C398.937 65.2107 398.307 63.7173 397.049 62.672C395.811 61.6053 393.987 61.072 391.577 61.072H384.441L385.177 60.272V74ZM412.848 82.128C411.163 82.128 409.669 81.7653 408.368 81.04C407.088 80.3147 406.075 79.312 405.328 78.032C404.603 76.752 404.24 75.2907 404.24 73.648C404.24 71.984 404.581 70.5227 405.264 69.264C405.968 67.984 406.928 66.9813 408.144 66.256C409.36 65.5307 410.725 65.168 412.24 65.168C413.755 65.168 415.109 65.52 416.304 66.224C417.52 66.928 418.469 67.92 419.152 69.2C419.856 70.4587 420.208 71.92 420.208 73.584C420.208 73.648 420.197 73.7227 420.176 73.808C420.176 73.872 420.176 73.9467 420.176 74.032H405.424V72.784H419.312L418.672 73.392C418.693 72.0907 418.416 70.928 417.84 69.904C417.285 68.8587 416.528 68.048 415.568 67.472C414.608 66.8747 413.499 66.576 412.24 66.576C411.003 66.576 409.893 66.8747 408.912 67.472C407.952 68.048 407.195 68.8587 406.64 69.904C406.085 70.928 405.808 72.1013 405.808 73.424V73.712C405.808 75.0773 406.107 76.2933 406.704 77.36C407.323 78.4053 408.165 79.2267 409.232 79.824C410.299 80.4 411.515 80.688 412.88 80.688C413.947 80.688 414.939 80.496 415.856 80.112C416.795 79.728 417.584 79.1413 418.224 78.352L419.152 79.408C418.427 80.304 417.509 80.9867 416.4 81.456C415.312 81.904 414.128 82.128 412.848 82.128ZM431.782 82.128C430.16 82.128 428.71 81.7653 427.43 81.04C426.171 80.3147 425.168 79.312 424.422 78.032C423.696 76.752 423.334 75.2907 423.334 73.648C423.334 71.984 423.696 70.512 424.422 69.232C425.168 67.952 426.171 66.96 427.43 66.256C428.71 65.5307 430.16 65.168 431.782 65.168C433.126 65.168 434.342 65.424 435.43 65.936C436.539 66.448 437.435 67.216 438.118 68.24L436.934 69.104C436.336 68.2507 435.59 67.6213 434.694 67.216C433.798 66.8107 432.827 66.608 431.782 66.608C430.48 66.608 429.307 66.9067 428.262 67.504C427.238 68.08 426.427 68.9013 425.83 69.968C425.254 71.0133 424.966 72.24 424.966 73.648C424.966 75.056 425.254 76.2933 425.83 77.36C426.427 78.4053 427.238 79.2267 428.262 79.824C429.307 80.4 430.48 80.688 431.782 80.688C432.827 80.688 433.798 80.4853 434.694 80.08C435.59 79.6747 436.336 79.0453 436.934 78.192L438.118 79.056C437.435 80.08 436.539 80.848 435.43 81.36C434.342 81.872 433.126 82.128 431.782 82.128ZM449.41 82.128C447.725 82.128 446.232 81.7653 444.93 81.04C443.65 80.3147 442.637 79.312 441.89 78.032C441.165 76.752 440.802 75.2907 440.802 73.648C440.802 71.984 441.144 70.5227 441.826 69.264C442.53 67.984 443.49 66.9813 444.706 66.256C445.922 65.5307 447.288 65.168 448.802 65.168C450.317 65.168 451.672 65.52 452.866 66.224C454.082 66.928 455.032 67.92 455.714 69.2C456.418 70.4587 456.77 71.92 456.77 73.584C456.77 73.648 456.76 73.7227 456.738 73.808C456.738 73.872 456.738 73.9467 456.738 74.032H441.986V72.784H455.874L455.234 73.392C455.256 72.0907 454.978 70.928 454.402 69.904C453.848 68.8587 453.09 68.048 452.13 67.472C451.17 66.8747 450.061 66.576 448.802 66.576C447.565 66.576 446.456 66.8747 445.474 67.472C444.514 68.048 443.757 68.8587 443.202 69.904C442.648 70.928 442.37 72.1013 442.37 73.424V73.712C442.37 75.0773 442.669 76.2933 443.266 77.36C443.885 78.4053 444.728 79.2267 445.794 79.824C446.861 80.4 448.077 80.688 449.442 80.688C450.509 80.688 451.501 80.496 452.418 80.112C453.357 79.728 454.146 79.1413 454.786 78.352L455.714 79.408C454.989 80.304 454.072 80.9867 452.962 81.456C451.874 81.904 450.69 82.128 449.41 82.128ZM469.88 65.168C471.245 65.168 472.429 65.4347 473.432 65.968C474.456 66.48 475.245 67.2693 475.8 68.336C476.376 69.3813 476.664 70.6827 476.664 72.24V82H475.064V72.368C475.064 70.4907 474.584 69.0613 473.624 68.08C472.685 67.0987 471.363 66.608 469.656 66.608C468.355 66.608 467.224 66.8747 466.264 67.408C465.304 67.9413 464.568 68.688 464.056 69.648C463.565 70.608 463.32 71.76 463.32 73.104V82H461.72V65.296H463.256V69.936L463.032 69.424C463.544 68.1013 464.387 67.0667 465.56 66.32C466.733 65.552 468.173 65.168 469.88 65.168ZM488.115 82.128C486.643 82.128 485.513 81.7227 484.723 80.912C483.955 80.1013 483.571 78.992 483.571 77.584V61.648H485.171V77.424C485.171 78.4907 485.438 79.312 485.971 79.888C486.505 80.464 487.273 80.752 488.275 80.752C489.321 80.752 490.185 80.4427 490.867 79.824L491.539 80.944C491.113 81.3493 490.59 81.648 489.971 81.84C489.374 82.032 488.755 82.128 488.115 82.128ZM480.499 66.672V65.296H490.483V66.672H480.499ZM504.732 82V59.6H512.764C514.641 59.6 516.252 59.8987 517.596 60.496C518.94 61.0933 519.975 61.9573 520.7 63.088C521.425 64.1973 521.788 65.552 521.788 67.152C521.788 68.7093 521.425 70.0533 520.7 71.184C519.975 72.3147 518.94 73.1787 517.596 73.776C516.252 74.3733 514.641 74.672 512.764 74.672H505.628L506.364 73.904V82H504.732ZM506.364 74L505.628 73.2H512.764C515.175 73.2 516.999 72.6773 518.236 71.632C519.495 70.5653 520.124 69.072 520.124 67.152C520.124 65.2107 519.495 63.7173 518.236 62.672C516.999 61.6053 515.175 61.072 512.764 61.072H505.628L506.364 60.272V74ZM537.154 82V78.192L537.09 77.616V71.344C537.09 69.7867 536.664 68.6027 535.81 67.792C534.978 66.9813 533.752 66.576 532.13 66.576C530.978 66.576 529.901 66.7787 528.898 67.184C527.917 67.568 527.074 68.0693 526.37 68.688L525.57 67.536C526.402 66.7893 527.405 66.2133 528.578 65.808C529.752 65.3813 530.978 65.168 532.258 65.168C534.328 65.168 535.917 65.6907 537.026 66.736C538.136 67.7813 538.69 69.3387 538.69 71.408V82H537.154ZM531.138 82.128C529.901 82.128 528.824 81.936 527.906 81.552C527.01 81.1467 526.317 80.5813 525.826 79.856C525.357 79.1307 525.122 78.2987 525.122 77.36C525.122 76.5067 525.314 75.7387 525.698 75.056C526.104 74.352 526.765 73.7867 527.682 73.36C528.6 72.912 529.826 72.688 531.362 72.688H537.506V73.936H531.394C529.666 73.936 528.45 74.256 527.746 74.896C527.064 75.536 526.722 76.336 526.722 77.296C526.722 78.3627 527.128 79.216 527.938 79.856C528.749 80.496 529.89 80.816 531.362 80.816C532.77 80.816 533.954 80.496 534.914 79.856C535.896 79.216 536.621 78.288 537.09 77.072L537.538 78.16C537.09 79.376 536.322 80.3467 535.234 81.072C534.168 81.776 532.802 82.128 531.138 82.128ZM549.507 82.128C548.12 82.128 546.819 81.9253 545.603 81.52C544.408 81.1147 543.48 80.6027 542.819 79.984L543.555 78.704C544.195 79.2587 545.048 79.7387 546.115 80.144C547.181 80.528 548.333 80.72 549.571 80.72C551.32 80.72 552.579 80.432 553.347 79.856C554.115 79.28 554.499 78.5227 554.499 77.584C554.499 76.9013 554.296 76.368 553.891 75.984C553.507 75.5787 552.984 75.2693 552.323 75.056C551.661 74.8427 550.936 74.672 550.147 74.544C549.357 74.3947 548.568 74.2347 547.779 74.064C546.989 73.8933 546.264 73.648 545.603 73.328C544.941 73.008 544.408 72.5707 544.003 72.016C543.619 71.44 543.427 70.6827 543.427 69.744C543.427 68.8907 543.661 68.1227 544.131 67.44C544.6 66.7573 545.304 66.2133 546.243 65.808C547.181 65.3813 548.355 65.168 549.763 65.168C550.808 65.168 551.853 65.3173 552.899 65.616C553.965 65.9147 554.829 66.3093 555.491 66.8L554.755 68.08C554.051 67.5467 553.261 67.1627 552.387 66.928C551.512 66.6933 550.627 66.576 549.731 66.576C548.109 66.576 546.915 66.8747 546.147 67.472C545.4 68.0693 545.027 68.816 545.027 69.712C545.027 70.416 545.219 70.9813 545.603 71.408C546.008 71.8133 546.541 72.1333 547.203 72.368C547.864 72.5813 548.589 72.7627 549.379 72.912C550.168 73.04 550.957 73.1893 551.747 73.36C552.536 73.5307 553.261 73.776 553.923 74.096C554.584 74.3947 555.107 74.8213 555.491 75.376C555.896 75.9093 556.099 76.6347 556.099 77.552C556.099 78.4693 555.843 79.2693 555.331 79.952C554.84 80.6347 554.104 81.168 553.123 81.552C552.141 81.936 550.936 82.128 549.507 82.128ZM565.428 82.128C563.956 82.128 562.825 81.7227 562.036 80.912C561.268 80.1013 560.884 78.992 560.884 77.584V61.648H562.484V77.424C562.484 78.4907 562.751 79.312 563.284 79.888C563.817 80.464 564.585 80.752 565.588 80.752C566.633 80.752 567.497 80.4427 568.18 79.824L568.852 80.944C568.425 81.3493 567.903 81.648 567.284 81.84C566.687 82.032 566.068 82.128 565.428 82.128ZM557.812 66.672V65.296H567.796V66.672H557.812ZM623.138 82V59.6H631.17C633.048 59.6 634.658 59.8987 636.002 60.496C637.346 61.0933 638.381 61.9573 639.106 63.088C639.832 64.1973 640.194 65.552 640.194 67.152C640.194 68.7093 639.832 70.0533 639.106 71.184C638.381 72.3147 637.346 73.1787 636.002 73.776C634.658 74.3733 633.048 74.672 631.17 74.672H624.034L624.77 73.904V82H623.138ZM624.77 74L624.034 73.2H631.17C633.581 73.2 635.405 72.6773 636.642 71.632C637.901 70.5653 638.53 69.072 638.53 67.152C638.53 65.2107 637.901 63.7173 636.642 62.672C635.405 61.6053 633.581 61.072 631.17 61.072H624.034L624.77 60.272V74ZM644.658 82V65.296H646.194V69.872L646.034 69.36C646.503 68.016 647.292 66.9813 648.402 66.256C649.511 65.5307 650.898 65.168 652.562 65.168V66.736C652.498 66.736 652.434 66.736 652.37 66.736C652.306 66.7147 652.242 66.704 652.178 66.704C650.322 66.704 648.871 67.2907 647.826 68.464C646.78 69.616 646.258 71.2267 646.258 73.296V82H644.658ZM663.598 82.128C661.913 82.128 660.419 81.7653 659.118 81.04C657.838 80.3147 656.825 79.312 656.078 78.032C655.353 76.752 654.99 75.2907 654.99 73.648C654.99 71.984 655.331 70.5227 656.014 69.264C656.718 67.984 657.678 66.9813 658.894 66.256C660.11 65.5307 661.475 65.168 662.99 65.168C664.505 65.168 665.859 65.52 667.054 66.224C668.27 66.928 669.219 67.92 669.902 69.2C670.606 70.4587 670.958 71.92 670.958 73.584C670.958 73.648 670.947 73.7227 670.926 73.808C670.926 73.872 670.926 73.9467 670.926 74.032H656.174V72.784H670.062L669.422 73.392C669.443 72.0907 669.166 70.928 668.59 69.904C668.035 68.8587 667.278 68.048 666.318 67.472C665.358 66.8747 664.249 66.576 662.99 66.576C661.753 66.576 660.643 66.8747 659.662 67.472C658.702 68.048 657.945 68.8587 657.39 69.904C656.835 70.928 656.558 72.1013 656.558 73.424V73.712C656.558 75.0773 656.857 76.2933 657.454 77.36C658.073 78.4053 658.915 79.2267 659.982 79.824C661.049 80.4 662.265 80.688 663.63 80.688C664.697 80.688 665.689 80.496 666.606 80.112C667.545 79.728 668.334 79.1413 668.974 78.352L669.902 79.408C669.177 80.304 668.259 80.9867 667.15 81.456C666.062 81.904 664.878 82.128 663.598 82.128ZM680.132 82.128C678.745 82.128 677.444 81.9253 676.228 81.52C675.033 81.1147 674.105 80.6027 673.444 79.984L674.18 78.704C674.82 79.2587 675.673 79.7387 676.74 80.144C677.806 80.528 678.958 80.72 680.196 80.72C681.945 80.72 683.204 80.432 683.972 79.856C684.74 79.28 685.124 78.5227 685.124 77.584C685.124 76.9013 684.921 76.368 684.516 75.984C684.132 75.5787 683.609 75.2693 682.948 75.056C682.286 74.8427 681.561 74.672 680.772 74.544C679.982 74.3947 679.193 74.2347 678.404 74.064C677.614 73.8933 676.889 73.648 676.228 73.328C675.566 73.008 675.033 72.5707 674.628 72.016C674.244 71.44 674.052 70.6827 674.052 69.744C674.052 68.8907 674.286 68.1227 674.756 67.44C675.225 66.7573 675.929 66.2133 676.868 65.808C677.806 65.3813 678.98 65.168 680.388 65.168C681.433 65.168 682.478 65.3173 683.524 65.616C684.59 65.9147 685.454 66.3093 686.116 66.8L685.38 68.08C684.676 67.5467 683.886 67.1627 683.012 66.928C682.137 66.6933 681.252 66.576 680.356 66.576C678.734 66.576 677.54 66.8747 676.772 67.472C676.025 68.0693 675.652 68.816 675.652 69.712C675.652 70.416 675.844 70.9813 676.228 71.408C676.633 71.8133 677.166 72.1333 677.828 72.368C678.489 72.5813 679.214 72.7627 680.004 72.912C680.793 73.04 681.582 73.1893 682.372 73.36C683.161 73.5307 683.886 73.776 684.548 74.096C685.209 74.3947 685.732 74.8213 686.116 75.376C686.521 75.9093 686.724 76.6347 686.724 77.552C686.724 78.4693 686.468 79.2693 685.956 79.952C685.465 80.6347 684.729 81.168 683.748 81.552C682.766 81.936 681.561 82.128 680.132 82.128ZM697.973 82.128C696.288 82.128 694.794 81.7653 693.493 81.04C692.213 80.3147 691.2 79.312 690.453 78.032C689.728 76.752 689.365 75.2907 689.365 73.648C689.365 71.984 689.706 70.5227 690.389 69.264C691.093 67.984 692.053 66.9813 693.269 66.256C694.485 65.5307 695.85 65.168 697.365 65.168C698.88 65.168 700.234 65.52 701.429 66.224C702.645 66.928 703.594 67.92 704.277 69.2C704.981 70.4587 705.333 71.92 705.333 73.584C705.333 73.648 705.322 73.7227 705.301 73.808C705.301 73.872 705.301 73.9467 705.301 74.032H690.549V72.784H704.437L703.797 73.392C703.818 72.0907 703.541 70.928 702.965 69.904C702.41 68.8587 701.653 68.048 700.693 67.472C699.733 66.8747 698.624 66.576 697.365 66.576C696.128 66.576 695.018 66.8747 694.037 67.472C693.077 68.048 692.32 68.8587 691.765 69.904C691.21 70.928 690.933 72.1013 690.933 73.424V73.712C690.933 75.0773 691.232 76.2933 691.829 77.36C692.448 78.4053 693.29 79.2267 694.357 79.824C695.424 80.4 696.64 80.688 698.005 80.688C699.072 80.688 700.064 80.496 700.981 80.112C701.92 79.728 702.709 79.1413 703.349 78.352L704.277 79.408C703.552 80.304 702.634 80.9867 701.525 81.456C700.437 81.904 699.253 82.128 697.973 82.128ZM718.443 65.168C719.808 65.168 720.992 65.4347 721.995 65.968C723.019 66.48 723.808 67.2693 724.363 68.336C724.939 69.3813 725.227 70.6827 725.227 72.24V82H723.627V72.368C723.627 70.4907 723.147 69.0613 722.187 68.08C721.248 67.0987 719.925 66.608 718.219 66.608C716.917 66.608 715.787 66.8747 714.827 67.408C713.867 67.9413 713.131 68.688 712.619 69.648C712.128 70.608 711.883 71.76 711.883 73.104V82H710.283V65.296H711.819V69.936L711.595 69.424C712.107 68.1013 712.949 67.0667 714.123 66.32C715.296 65.552 716.736 65.168 718.443 65.168ZM736.678 82.128C735.206 82.128 734.075 81.7227 733.286 80.912C732.518 80.1013 732.134 78.992 732.134 77.584V61.648H733.734V77.424C733.734 78.4907 734.001 79.312 734.534 79.888C735.067 80.464 735.835 80.752 736.838 80.752C737.883 80.752 738.747 80.4427 739.43 79.824L740.102 80.944C739.675 81.3493 739.153 81.648 738.534 81.84C737.937 82.032 737.318 82.128 736.678 82.128ZM729.062 66.672V65.296H739.046V66.672H729.062ZM794.388 82V59.6H795.764L811.732 79.984H810.996V59.6H812.628V82H811.284L795.284 61.616H796.02V82H794.388ZM826.723 82.128C825.038 82.128 823.544 81.7653 822.243 81.04C820.963 80.3147 819.95 79.312 819.203 78.032C818.478 76.752 818.115 75.2907 818.115 73.648C818.115 71.984 818.456 70.5227 819.139 69.264C819.843 67.984 820.803 66.9813 822.019 66.256C823.235 65.5307 824.6 65.168 826.115 65.168C827.63 65.168 828.984 65.52 830.179 66.224C831.395 66.928 832.344 67.92 833.027 69.2C833.731 70.4587 834.083 71.92 834.083 73.584C834.083 73.648 834.072 73.7227 834.051 73.808C834.051 73.872 834.051 73.9467 834.051 74.032H819.299V72.784H833.187L832.547 73.392C832.568 72.0907 832.291 70.928 831.715 69.904C831.16 68.8587 830.403 68.048 829.443 67.472C828.483 66.8747 827.374 66.576 826.115 66.576C824.878 66.576 823.768 66.8747 822.787 67.472C821.827 68.048 821.07 68.8587 820.515 69.904C819.96 70.928 819.683 72.1013 819.683 73.424V73.712C819.683 75.0773 819.982 76.2933 820.579 77.36C821.198 78.4053 822.04 79.2267 823.107 79.824C824.174 80.4 825.39 80.688 826.755 80.688C827.822 80.688 828.814 80.496 829.731 80.112C830.67 79.728 831.459 79.1413 832.099 78.352L833.027 79.408C832.302 80.304 831.384 80.9867 830.275 81.456C829.187 81.904 828.003 82.128 826.723 82.128ZM849.092 82V78.192L849.028 77.616V71.344C849.028 69.7867 848.601 68.6027 847.748 67.792C846.916 66.9813 845.689 66.576 844.068 66.576C842.916 66.576 841.839 66.7787 840.836 67.184C839.855 67.568 839.012 68.0693 838.308 68.688L837.508 67.536C838.34 66.7893 839.343 66.2133 840.516 65.808C841.689 65.3813 842.916 65.168 844.196 65.168C846.265 65.168 847.855 65.6907 848.964 66.736C850.073 67.7813 850.628 69.3387 850.628 71.408V82H849.092ZM843.076 82.128C841.839 82.128 840.761 81.936 839.844 81.552C838.948 81.1467 838.255 80.5813 837.764 79.856C837.295 79.1307 837.06 78.2987 837.06 77.36C837.06 76.5067 837.252 75.7387 837.636 75.056C838.041 74.352 838.703 73.7867 839.62 73.36C840.537 72.912 841.764 72.688 843.3 72.688H849.444V73.936H843.332C841.604 73.936 840.388 74.256 839.684 74.896C839.001 75.536 838.66 76.336 838.66 77.296C838.66 78.3627 839.065 79.216 839.876 79.856C840.687 80.496 841.828 80.816 843.3 80.816C844.708 80.816 845.892 80.496 846.852 79.856C847.833 79.216 848.559 78.288 849.028 77.072L849.476 78.16C849.028 79.376 848.26 80.3467 847.172 81.072C846.105 81.776 844.74 82.128 843.076 82.128ZM857.22 82V65.296H858.756V69.872L858.596 69.36C859.065 68.016 859.855 66.9813 860.964 66.256C862.073 65.5307 863.46 65.168 865.124 65.168V66.736C865.06 66.736 864.996 66.736 864.932 66.736C864.868 66.7147 864.804 66.704 864.74 66.704C862.884 66.704 861.433 67.2907 860.388 68.464C859.343 69.616 858.82 71.2267 858.82 73.296V82H857.22ZM879.985 70.64H892.113V72.112H879.985V70.64ZM880.177 82H878.545V59.6H893.521V61.072H880.177V82ZM904.41 82.128C902.981 82.128 901.744 81.872 900.698 81.36C899.653 80.8267 898.842 80.0373 898.266 78.992C897.712 77.9253 897.434 76.6133 897.434 75.056V65.296H899.034V74.928C899.034 76.8053 899.514 78.2347 900.474 79.216C901.434 80.1973 902.789 80.688 904.538 80.688C905.797 80.688 906.885 80.4213 907.802 79.888C908.72 79.3547 909.424 78.608 909.914 77.648C910.405 76.6667 910.65 75.5147 910.65 74.192V65.296H912.25V82H910.714V77.36L910.938 77.904C910.448 79.2053 909.626 80.24 908.474 81.008C907.344 81.7547 905.989 82.128 904.41 82.128ZM923.897 82.128C922.425 82.128 921.294 81.7227 920.505 80.912C919.737 80.1013 919.353 78.992 919.353 77.584V61.648H920.953V77.424C920.953 78.4907 921.219 79.312 921.753 79.888C922.286 80.464 923.054 80.752 924.057 80.752C925.102 80.752 925.966 80.4427 926.649 79.824L927.321 80.944C926.894 81.3493 926.371 81.648 925.753 81.84C925.155 82.032 924.537 82.128 923.897 82.128ZM916.281 66.672V65.296H926.265V66.672H916.281ZM938.567 82.128C937.137 82.128 935.9 81.872 934.855 81.36C933.809 80.8267 932.999 80.0373 932.423 78.992C931.868 77.9253 931.591 76.6133 931.591 75.056V65.296H933.191V74.928C933.191 76.8053 933.671 78.2347 934.631 79.216C935.591 80.1973 936.945 80.688 938.695 80.688C939.953 80.688 941.041 80.4213 941.959 79.888C942.876 79.3547 943.58 78.608 944.071 77.648C944.561 76.6667 944.807 75.5147 944.807 74.192V65.296H946.407V82H944.871V77.36L945.095 77.904C944.604 79.2053 943.783 80.24 942.631 81.008C941.5 81.7547 940.145 82.128 938.567 82.128ZM953.189 82V65.296H954.725V69.872L954.565 69.36C955.034 68.016 955.824 66.9813 956.933 66.256C958.042 65.5307 959.429 65.168 961.093 65.168V66.736C961.029 66.736 960.965 66.736 960.901 66.736C960.837 66.7147 960.773 66.704 960.709 66.704C958.853 66.704 957.402 67.2907 956.357 68.464C955.312 69.616 954.789 71.2267 954.789 73.296V82H953.189ZM972.129 82.128C970.444 82.128 968.95 81.7653 967.649 81.04C966.369 80.3147 965.356 79.312 964.609 78.032C963.884 76.752 963.521 75.2907 963.521 73.648C963.521 71.984 963.862 70.5227 964.545 69.264C965.249 67.984 966.209 66.9813 967.425 66.256C968.641 65.5307 970.006 65.168 971.521 65.168C973.036 65.168 974.39 65.52 975.585 66.224C976.801 66.928 977.75 67.92 978.433 69.2C979.137 70.4587 979.489 71.92 979.489 73.584C979.489 73.648 979.478 73.7227 979.457 73.808C979.457 73.872 979.457 73.9467 979.457 74.032H964.705V72.784H978.593L977.953 73.392C977.974 72.0907 977.697 70.928 977.121 69.904C976.566 68.8587 975.809 68.048 974.849 67.472C973.889 66.8747 972.78 66.576 971.521 66.576C970.284 66.576 969.174 66.8747 968.193 67.472C967.233 68.048 966.476 68.8587 965.921 69.904C965.366 70.928 965.089 72.1013 965.089 73.424V73.712C965.089 75.0773 965.388 76.2933 965.985 77.36C966.604 78.4053 967.446 79.2267 968.513 79.824C969.58 80.4 970.796 80.688 972.161 80.688C973.228 80.688 974.22 80.496 975.137 80.112C976.076 79.728 976.865 79.1413 977.505 78.352L978.433 79.408C977.708 80.304 976.79 80.9867 975.681 81.456C974.593 81.904 973.409 82.128 972.129 82.128ZM1034.26 82V59.6H1043.13C1045.5 59.6 1047.58 60.08 1049.37 61.04C1051.16 62 1052.55 63.3227 1053.53 65.008C1054.53 66.6933 1055.03 68.624 1055.03 70.8C1055.03 72.976 1054.53 74.9067 1053.53 76.592C1052.55 78.2773 1051.16 79.6 1049.37 80.56C1047.58 81.52 1045.5 82 1043.13 82H1034.26ZM1035.9 80.528H1043C1045.11 80.528 1046.95 80.112 1048.5 79.28C1050.06 78.448 1051.27 77.3067 1052.12 75.856C1052.97 74.384 1053.4 72.6987 1053.4 70.8C1053.4 68.9013 1052.97 67.2267 1052.12 65.776C1051.27 64.304 1050.06 63.152 1048.5 62.32C1046.95 61.488 1045.11 61.072 1043 61.072H1035.9V80.528ZM1060.19 82V65.296H1061.79V82H1060.19ZM1060.99 61.232C1060.63 61.232 1060.32 61.104 1060.06 60.848C1059.8 60.592 1059.68 60.2933 1059.68 59.952C1059.68 59.5893 1059.8 59.28 1060.06 59.024C1060.32 58.768 1060.63 58.64 1060.99 58.64C1061.37 58.64 1061.68 58.768 1061.92 59.024C1062.17 59.2587 1062.3 59.5573 1062.3 59.92C1062.3 60.2827 1062.17 60.592 1061.92 60.848C1061.68 61.104 1061.37 61.232 1060.99 61.232ZM1072.76 82.128C1071.37 82.128 1070.07 81.9253 1068.85 81.52C1067.66 81.1147 1066.73 80.6027 1066.07 79.984L1066.8 78.704C1067.44 79.2587 1068.3 79.7387 1069.36 80.144C1070.43 80.528 1071.58 80.72 1072.82 80.72C1074.57 80.72 1075.83 80.432 1076.6 79.856C1077.36 79.28 1077.75 78.5227 1077.75 77.584C1077.75 76.9013 1077.55 76.368 1077.14 75.984C1076.76 75.5787 1076.23 75.2693 1075.57 75.056C1074.91 74.8427 1074.19 74.672 1073.4 74.544C1072.61 74.3947 1071.82 74.2347 1071.03 74.064C1070.24 73.8933 1069.51 73.648 1068.85 73.328C1068.19 73.008 1067.66 72.5707 1067.25 72.016C1066.87 71.44 1066.68 70.6827 1066.68 69.744C1066.68 68.8907 1066.91 68.1227 1067.38 67.44C1067.85 66.7573 1068.55 66.2133 1069.49 65.808C1070.43 65.3813 1071.6 65.168 1073.01 65.168C1074.06 65.168 1075.1 65.3173 1076.15 65.616C1077.22 65.9147 1078.08 66.3093 1078.74 66.8L1078 68.08C1077.3 67.5467 1076.51 67.1627 1075.64 66.928C1074.76 66.6933 1073.88 66.576 1072.98 66.576C1071.36 66.576 1070.16 66.8747 1069.4 67.472C1068.65 68.0693 1068.28 68.816 1068.28 69.712C1068.28 70.416 1068.47 70.9813 1068.85 71.408C1069.26 71.8133 1069.79 72.1333 1070.45 72.368C1071.11 72.5813 1071.84 72.7627 1072.63 72.912C1073.42 73.04 1074.21 73.1893 1075 73.36C1075.79 73.5307 1076.51 73.776 1077.17 74.096C1077.83 74.3947 1078.36 74.8213 1078.74 75.376C1079.15 75.9093 1079.35 76.6347 1079.35 77.552C1079.35 78.4693 1079.09 79.2693 1078.58 79.952C1078.09 80.6347 1077.35 81.168 1076.37 81.552C1075.39 81.936 1074.19 82.128 1072.76 82.128ZM1088.68 82.128C1087.21 82.128 1086.08 81.7227 1085.29 80.912C1084.52 80.1013 1084.13 78.992 1084.13 77.584V61.648H1085.73V77.424C1085.73 78.4907 1086 79.312 1086.53 79.888C1087.07 80.464 1087.84 80.752 1088.84 80.752C1089.88 80.752 1090.75 80.4427 1091.43 79.824L1092.1 80.944C1091.68 81.3493 1091.15 81.648 1090.53 81.84C1089.94 82.032 1089.32 82.128 1088.68 82.128ZM1081.06 66.672V65.296H1091.05V66.672H1081.06ZM1107.09 82V78.192L1107.03 77.616V71.344C1107.03 69.7867 1106.6 68.6027 1105.75 67.792C1104.92 66.9813 1103.69 66.576 1102.07 66.576C1100.92 66.576 1099.84 66.7787 1098.84 67.184C1097.85 67.568 1097.01 68.0693 1096.31 68.688L1095.51 67.536C1096.34 66.7893 1097.34 66.2133 1098.52 65.808C1099.69 65.3813 1100.92 65.168 1102.2 65.168C1104.27 65.168 1105.85 65.6907 1106.96 66.736C1108.07 67.7813 1108.63 69.3387 1108.63 71.408V82H1107.09ZM1101.08 82.128C1099.84 82.128 1098.76 81.936 1097.84 81.552C1096.95 81.1467 1096.25 80.5813 1095.76 79.856C1095.29 79.1307 1095.06 78.2987 1095.06 77.36C1095.06 76.5067 1095.25 75.7387 1095.64 75.056C1096.04 74.352 1096.7 73.7867 1097.62 73.36C1098.54 72.912 1099.76 72.688 1101.3 72.688H1107.44V73.936H1101.33C1099.6 73.936 1098.39 74.256 1097.68 74.896C1097 75.536 1096.66 76.336 1096.66 77.296C1096.66 78.3627 1097.07 79.216 1097.88 79.856C1098.69 80.496 1099.83 80.816 1101.3 80.816C1102.71 80.816 1103.89 80.496 1104.85 79.856C1105.83 79.216 1106.56 78.288 1107.03 77.072L1107.48 78.16C1107.03 79.376 1106.26 80.3467 1105.17 81.072C1104.11 81.776 1102.74 82.128 1101.08 82.128ZM1123.38 65.168C1124.75 65.168 1125.93 65.4347 1126.93 65.968C1127.96 66.48 1128.75 67.2693 1129.3 68.336C1129.88 69.3813 1130.16 70.6827 1130.16 72.24V82H1128.56V72.368C1128.56 70.4907 1128.08 69.0613 1127.12 68.08C1126.19 67.0987 1124.86 66.608 1123.16 66.608C1121.85 66.608 1120.72 66.8747 1119.76 67.408C1118.8 67.9413 1118.07 68.688 1117.56 69.648C1117.07 70.608 1116.82 71.76 1116.82 73.104V82H1115.22V65.296H1116.76V69.936L1116.53 69.424C1117.04 68.1013 1117.89 67.0667 1119.06 66.32C1120.23 65.552 1121.67 65.168 1123.38 65.168ZM1141.62 82.128C1140.14 82.128 1139.01 81.7227 1138.22 80.912C1137.46 80.1013 1137.07 78.992 1137.07 77.584V61.648H1138.67V77.424C1138.67 78.4907 1138.94 79.312 1139.47 79.888C1140 80.464 1140.77 80.752 1141.78 80.752C1142.82 80.752 1143.68 80.4427 1144.37 79.824L1145.04 80.944C1144.61 81.3493 1144.09 81.648 1143.47 81.84C1142.87 82.032 1142.26 82.128 1141.62 82.128ZM1134 66.672V65.296H1143.98V66.672H1134ZM1159.67 70.64H1171.8V72.112H1159.67V70.64ZM1159.86 82H1158.23V59.6H1173.21V61.072H1159.86V82ZM1184.1 82.128C1182.67 82.128 1181.43 81.872 1180.39 81.36C1179.34 80.8267 1178.53 80.0373 1177.95 78.992C1177.4 77.9253 1177.12 76.6133 1177.12 75.056V65.296H1178.72V74.928C1178.72 76.8053 1179.2 78.2347 1180.16 79.216C1181.12 80.1973 1182.48 80.688 1184.23 80.688C1185.48 80.688 1186.57 80.4213 1187.49 79.888C1188.41 79.3547 1189.11 78.608 1189.6 77.648C1190.09 76.6667 1190.34 75.5147 1190.34 74.192V65.296H1191.94V82H1190.4V77.36L1190.63 77.904C1190.14 79.2053 1189.31 80.24 1188.16 81.008C1187.03 81.7547 1185.68 82.128 1184.1 82.128ZM1203.58 82.128C1202.11 82.128 1200.98 81.7227 1200.19 80.912C1199.42 80.1013 1199.04 78.992 1199.04 77.584V61.648H1200.64V77.424C1200.64 78.4907 1200.91 79.312 1201.44 79.888C1201.97 80.464 1202.74 80.752 1203.74 80.752C1204.79 80.752 1205.65 80.4427 1206.34 79.824L1207.01 80.944C1206.58 81.3493 1206.06 81.648 1205.44 81.84C1204.84 82.032 1204.22 82.128 1203.58 82.128ZM1195.97 66.672V65.296H1205.95V66.672H1195.97ZM1218.25 82.128C1216.82 82.128 1215.59 81.872 1214.54 81.36C1213.5 80.8267 1212.69 80.0373 1212.11 78.992C1211.56 77.9253 1211.28 76.6133 1211.28 75.056V65.296H1212.88V74.928C1212.88 76.8053 1213.36 78.2347 1214.32 79.216C1215.28 80.1973 1216.63 80.688 1218.38 80.688C1219.64 80.688 1220.73 80.4213 1221.65 79.888C1222.56 79.3547 1223.27 78.608 1223.76 77.648C1224.25 76.6667 1224.49 75.5147 1224.49 74.192V65.296H1226.09V82H1224.56V77.36L1224.78 77.904C1224.29 79.2053 1223.47 80.24 1222.32 81.008C1221.19 81.7547 1219.83 82.128 1218.25 82.128ZM1232.88 82V65.296H1234.41V69.872L1234.25 69.36C1234.72 68.016 1235.51 66.9813 1236.62 66.256C1237.73 65.5307 1239.12 65.168 1240.78 65.168V66.736C1240.72 66.736 1240.65 66.736 1240.59 66.736C1240.52 66.7147 1240.46 66.704 1240.4 66.704C1238.54 66.704 1237.09 67.2907 1236.04 68.464C1235 69.616 1234.48 71.2267 1234.48 73.296V82H1232.88ZM1251.82 82.128C1250.13 82.128 1248.64 81.7653 1247.34 81.04C1246.06 80.3147 1245.04 79.312 1244.3 78.032C1243.57 76.752 1243.21 75.2907 1243.21 73.648C1243.21 71.984 1243.55 70.5227 1244.23 69.264C1244.94 67.984 1245.9 66.9813 1247.11 66.256C1248.33 65.5307 1249.69 65.168 1251.21 65.168C1252.72 65.168 1254.08 65.52 1255.27 66.224C1256.49 66.928 1257.44 67.92 1258.12 69.2C1258.82 70.4587 1259.18 71.92 1259.18 73.584C1259.18 73.648 1259.17 73.7227 1259.14 73.808C1259.14 73.872 1259.14 73.9467 1259.14 74.032H1244.39V72.784H1258.28L1257.64 73.392C1257.66 72.0907 1257.38 70.928 1256.81 69.904C1256.25 68.8587 1255.5 68.048 1254.54 67.472C1253.58 66.8747 1252.47 66.576 1251.21 66.576C1249.97 66.576 1248.86 66.8747 1247.88 67.472C1246.92 68.048 1246.16 68.8587 1245.61 69.904C1245.05 70.928 1244.78 72.1013 1244.78 73.424V73.712C1244.78 75.0773 1245.08 76.2933 1245.67 77.36C1246.29 78.4053 1247.13 79.2267 1248.2 79.824C1249.27 80.4 1250.48 80.688 1251.85 80.688C1252.92 80.688 1253.91 80.496 1254.82 80.112C1255.76 79.728 1256.55 79.1413 1257.19 78.352L1258.12 79.408C1257.4 80.304 1256.48 80.9867 1255.37 81.456C1254.28 81.904 1253.1 82.128 1251.82 82.128Z" fill="white"/>
<line x1="118" y1="2.5" x2="1260" y2="2.5" stroke="white" stroke-width="5"/>
</svg>
